<?xml version="1.0" encoding="utf-8" standalone="no"?>
<!DOCTYPE svg PUBLIC "-//W3C//DTD SVG 1.1//EN"
  "http://www.w3.org/Graphics/SVG/1.1/DTD/svg11.dtd">
<!-- Created with matplotlib (https://matplotlib.org/) -->
<svg height="345.6pt" version="1.1" viewBox="0 0 460.8 345.6" width="460.8pt" xmlns="http://www.w3.org/2000/svg" xmlns:xlink="http://www.w3.org/1999/xlink">
 <defs>
  <style type="text/css">
*{stroke-linecap:butt;stroke-linejoin:round;}
  </style>
 </defs>
 <g id="figure_1">
  <g id="patch_1">
   <path d="M 0 345.6 
L 460.8 345.6 
L 460.8 0 
L 0 0 
z
" style="fill:#ffffff;"/>
  </g>
  <g id="axes_1">
   <g id="patch_2">
    <path d="M 57.6 307.584 
L 414.72 307.584 
L 414.72 41.472 
L 57.6 41.472 
z
" style="fill:#ffffff;"/>
   </g>
   <g id="matplotlib.axis_1">
    <g id="xtick_1">
     <g id="line2d_1">
      <defs>
       <path d="M 0 0 
L 0 3.5 
" id="me44cf822a3" style="stroke:#000000;stroke-width:0.8;"/>
      </defs>
      <g>
       <use style="stroke:#000000;stroke-width:0.8;" x="57.6" xlink:href="#me44cf822a3" y="307.584"/>
      </g>
     </g>
     <g id="text_1">
      <!-- −1.00 -->
      <defs>
       <path d="M 10.59375 35.5 
L 73.1875 35.5 
L 73.1875 27.203125 
L 10.59375 27.203125 
z
" id="DejaVuSans-8722"/>
       <path d="M 12.40625 8.296875 
L 28.515625 8.296875 
L 28.515625 63.921875 
L 10.984375 60.40625 
L 10.984375 69.390625 
L 28.421875 72.90625 
L 38.28125 72.90625 
L 38.28125 8.296875 
L 54.390625 8.296875 
L 54.390625 0 
L 12.40625 0 
z
" id="DejaVuSans-49"/>
       <path d="M 10.6875 12.40625 
L 21 12.40625 
L 21 0 
L 10.6875 0 
z
" id="DejaVuSans-46"/>
       <path d="M 31.78125 66.40625 
Q 24.171875 66.40625 20.328125 58.90625 
Q 16.5 51.421875 16.5 36.375 
Q 16.5 21.390625 20.328125 13.890625 
Q 24.171875 6.390625 31.78125 6.390625 
Q 39.453125 6.390625 43.28125 13.890625 
Q 47.125 21.390625 47.125 36.375 
Q 47.125 51.421875 43.28125 58.90625 
Q 39.453125 66.40625 31.78125 66.40625 
z
M 31.78125 74.21875 
Q 44.046875 74.21875 50.515625 64.515625 
Q 56.984375 54.828125 56.984375 36.375 
Q 56.984375 17.96875 50.515625 8.265625 
Q 44.046875 -1.421875 31.78125 -1.421875 
Q 19.53125 -1.421875 13.0625 8.265625 
Q 6.59375 17.96875 6.59375 36.375 
Q 6.59375 54.828125 13.0625 64.515625 
Q 19.53125 74.21875 31.78125 74.21875 
z
" id="DejaVuSans-48"/>
      </defs>
      <g transform="translate(42.277344 322.182437)scale(0.1 -0.1)">
       <use xlink:href="#DejaVuSans-8722"/>
       <use x="83.789062" xlink:href="#DejaVuSans-49"/>
       <use x="147.412109" xlink:href="#DejaVuSans-46"/>
       <use x="179.199219" xlink:href="#DejaVuSans-48"/>
       <use x="242.822266" xlink:href="#DejaVuSans-48"/>
      </g>
     </g>
    </g>
    <g id="xtick_2">
     <g id="line2d_2">
      <g>
       <use style="stroke:#000000;stroke-width:0.8;" x="102.24" xlink:href="#me44cf822a3" y="307.584"/>
      </g>
     </g>
     <g id="text_2">
      <!-- −0.75 -->
      <defs>
       <path d="M 8.203125 72.90625 
L 55.078125 72.90625 
L 55.078125 68.703125 
L 28.609375 0 
L 18.3125 0 
L 43.21875 64.59375 
L 8.203125 64.59375 
z
" id="DejaVuSans-55"/>
       <path d="M 10.796875 72.90625 
L 49.515625 72.90625 
L 49.515625 64.59375 
L 19.828125 64.59375 
L 19.828125 46.734375 
Q 21.96875 47.46875 24.109375 47.828125 
Q 26.265625 48.1875 28.421875 48.1875 
Q 40.625 48.1875 47.75 41.5 
Q 54.890625 34.8125 54.890625 23.390625 
Q 54.890625 11.625 47.5625 5.09375 
Q 40.234375 -1.421875 26.90625 -1.421875 
Q 22.3125 -1.421875 17.546875 -0.640625 
Q 12.796875 0.140625 7.71875 1.703125 
L 7.71875 11.625 
Q 12.109375 9.234375 16.796875 8.0625 
Q 21.484375 6.890625 26.703125 6.890625 
Q 35.15625 6.890625 40.078125 11.328125 
Q 45.015625 15.765625 45.015625 23.390625 
Q 45.015625 31 40.078125 35.4375 
Q 35.15625 39.890625 26.703125 39.890625 
Q 22.75 39.890625 18.8125 39.015625 
Q 14.890625 38.140625 10.796875 36.28125 
z
" id="DejaVuSans-53"/>
      </defs>
      <g transform="translate(86.917344 322.182437)scale(0.1 -0.1)">
       <use xlink:href="#DejaVuSans-8722"/>
       <use x="83.789062" xlink:href="#DejaVuSans-48"/>
       <use x="147.412109" xlink:href="#DejaVuSans-46"/>
       <use x="179.199219" xlink:href="#DejaVuSans-55"/>
       <use x="242.822266" xlink:href="#DejaVuSans-53"/>
      </g>
     </g>
    </g>
    <g id="xtick_3">
     <g id="line2d_3">
      <g>
       <use style="stroke:#000000;stroke-width:0.8;" x="146.88" xlink:href="#me44cf822a3" y="307.584"/>
      </g>
     </g>
     <g id="text_3">
      <!-- −0.50 -->
      <g transform="translate(131.557344 322.182437)scale(0.1 -0.1)">
       <use xlink:href="#DejaVuSans-8722"/>
       <use x="83.789062" xlink:href="#DejaVuSans-48"/>
       <use x="147.412109" xlink:href="#DejaVuSans-46"/>
       <use x="179.199219" xlink:href="#DejaVuSans-53"/>
       <use x="242.822266" xlink:href="#DejaVuSans-48"/>
      </g>
     </g>
    </g>
    <g id="xtick_4">
     <g id="line2d_4">
      <g>
       <use style="stroke:#000000;stroke-width:0.8;" x="191.52" xlink:href="#me44cf822a3" y="307.584"/>
      </g>
     </g>
     <g id="text_4">
      <!-- −0.25 -->
      <defs>
       <path d="M 19.1875 8.296875 
L 53.609375 8.296875 
L 53.609375 0 
L 7.328125 0 
L 7.328125 8.296875 
Q 12.9375 14.109375 22.625 23.890625 
Q 32.328125 33.6875 34.8125 36.53125 
Q 39.546875 41.84375 41.421875 45.53125 
Q 43.3125 49.21875 43.3125 52.78125 
Q 43.3125 58.59375 39.234375 62.25 
Q 35.15625 65.921875 28.609375 65.921875 
Q 23.96875 65.921875 18.8125 64.3125 
Q 13.671875 62.703125 7.8125 59.421875 
L 7.8125 69.390625 
Q 13.765625 71.78125 18.9375 73 
Q 24.125 74.21875 28.421875 74.21875 
Q 39.75 74.21875 46.484375 68.546875 
Q 53.21875 62.890625 53.21875 53.421875 
Q 53.21875 48.921875 51.53125 44.890625 
Q 49.859375 40.875 45.40625 35.40625 
Q 44.1875 33.984375 37.640625 27.21875 
Q 31.109375 20.453125 19.1875 8.296875 
z
" id="DejaVuSans-50"/>
      </defs>
      <g transform="translate(176.197344 322.182437)scale(0.1 -0.1)">
       <use xlink:href="#DejaVuSans-8722"/>
       <use x="83.789062" xlink:href="#DejaVuSans-48"/>
       <use x="147.412109" xlink:href="#DejaVuSans-46"/>
       <use x="179.199219" xlink:href="#DejaVuSans-50"/>
       <use x="242.822266" xlink:href="#DejaVuSans-53"/>
      </g>
     </g>
    </g>
    <g id="xtick_5">
     <g id="line2d_5">
      <g>
       <use style="stroke:#000000;stroke-width:0.8;" x="236.16" xlink:href="#me44cf822a3" y="307.584"/>
      </g>
     </g>
     <g id="text_5">
      <!-- 0.00 -->
      <g transform="translate(225.027187 322.182437)scale(0.1 -0.1)">
       <use xlink:href="#DejaVuSans-48"/>
       <use x="63.623047" xlink:href="#DejaVuSans-46"/>
       <use x="95.410156" xlink:href="#DejaVuSans-48"/>
       <use x="159.033203" xlink:href="#DejaVuSans-48"/>
      </g>
     </g>
    </g>
    <g id="xtick_6">
     <g id="line2d_6">
      <g>
       <use style="stroke:#000000;stroke-width:0.8;" x="280.8" xlink:href="#me44cf822a3" y="307.584"/>
      </g>
     </g>
     <g id="text_6">
      <!-- 0.25 -->
      <g transform="translate(269.667188 322.182437)scale(0.1 -0.1)">
       <use xlink:href="#DejaVuSans-48"/>
       <use x="63.623047" xlink:href="#DejaVuSans-46"/>
       <use x="95.410156" xlink:href="#DejaVuSans-50"/>
       <use x="159.033203" xlink:href="#DejaVuSans-53"/>
      </g>
     </g>
    </g>
    <g id="xtick_7">
     <g id="line2d_7">
      <g>
       <use style="stroke:#000000;stroke-width:0.8;" x="325.44" xlink:href="#me44cf822a3" y="307.584"/>
      </g>
     </g>
     <g id="text_7">
      <!-- 0.50 -->
      <g transform="translate(314.307187 322.182437)scale(0.1 -0.1)">
       <use xlink:href="#DejaVuSans-48"/>
       <use x="63.623047" xlink:href="#DejaVuSans-46"/>
       <use x="95.410156" xlink:href="#DejaVuSans-53"/>
       <use x="159.033203" xlink:href="#DejaVuSans-48"/>
      </g>
     </g>
    </g>
    <g id="xtick_8">
     <g id="line2d_8">
      <g>
       <use style="stroke:#000000;stroke-width:0.8;" x="370.08" xlink:href="#me44cf822a3" y="307.584"/>
      </g>
     </g>
     <g id="text_8">
      <!-- 0.75 -->
      <g transform="translate(358.947188 322.182437)scale(0.1 -0.1)">
       <use xlink:href="#DejaVuSans-48"/>
       <use x="63.623047" xlink:href="#DejaVuSans-46"/>
       <use x="95.410156" xlink:href="#DejaVuSans-55"/>
       <use x="159.033203" xlink:href="#DejaVuSans-53"/>
      </g>
     </g>
    </g>
    <g id="xtick_9">
     <g id="line2d_9">
      <g>
       <use style="stroke:#000000;stroke-width:0.8;" x="414.72" xlink:href="#me44cf822a3" y="307.584"/>
      </g>
     </g>
     <g id="text_9">
      <!-- 1.00 -->
      <g transform="translate(403.587188 322.182437)scale(0.1 -0.1)">
       <use xlink:href="#DejaVuSans-49"/>
       <use x="63.623047" xlink:href="#DejaVuSans-46"/>
       <use x="95.410156" xlink:href="#DejaVuSans-48"/>
       <use x="159.033203" xlink:href="#DejaVuSans-48"/>
      </g>
     </g>
    </g>
    <g id="text_10">
     <!-- x -->
     <defs>
      <path d="M 54.890625 54.6875 
L 35.109375 28.078125 
L 55.90625 0 
L 45.3125 0 
L 29.390625 21.484375 
L 13.484375 0 
L 2.875 0 
L 24.125 28.609375 
L 4.6875 54.6875 
L 15.28125 54.6875 
L 29.78125 35.203125 
L 44.28125 54.6875 
z
" id="DejaVuSans-120"/>
     </defs>
     <g transform="translate(233.200625 335.860562)scale(0.1 -0.1)">
      <use xlink:href="#DejaVuSans-120"/>
     </g>
    </g>
   </g>
   <g id="matplotlib.axis_2">
    <g id="ytick_1">
     <g id="line2d_10">
      <defs>
       <path d="M 0 0 
L -3.5 0 
" id="m34af9b556f" style="stroke:#000000;stroke-width:0.8;"/>
      </defs>
      <g>
       <use style="stroke:#000000;stroke-width:0.8;" x="57.6" xlink:href="#m34af9b556f" y="307.584"/>
      </g>
     </g>
     <g id="text_11">
      <!-- 0.0 -->
      <g transform="translate(34.696875 311.383219)scale(0.1 -0.1)">
       <use xlink:href="#DejaVuSans-48"/>
       <use x="63.623047" xlink:href="#DejaVuSans-46"/>
       <use x="95.410156" xlink:href="#DejaVuSans-48"/>
      </g>
     </g>
    </g>
    <g id="ytick_2">
     <g id="line2d_11">
      <g>
       <use style="stroke:#000000;stroke-width:0.8;" x="57.6" xlink:href="#m34af9b556f" y="256.896"/>
      </g>
     </g>
     <g id="text_12">
      <!-- 0.2 -->
      <g transform="translate(34.696875 260.695219)scale(0.1 -0.1)">
       <use xlink:href="#DejaVuSans-48"/>
       <use x="63.623047" xlink:href="#DejaVuSans-46"/>
       <use x="95.410156" xlink:href="#DejaVuSans-50"/>
      </g>
     </g>
    </g>
    <g id="ytick_3">
     <g id="line2d_12">
      <g>
       <use style="stroke:#000000;stroke-width:0.8;" x="57.6" xlink:href="#m34af9b556f" y="206.208"/>
      </g>
     </g>
     <g id="text_13">
      <!-- 0.4 -->
      <defs>
       <path d="M 37.796875 64.3125 
L 12.890625 25.390625 
L 37.796875 25.390625 
z
M 35.203125 72.90625 
L 47.609375 72.90625 
L 47.609375 25.390625 
L 58.015625 25.390625 
L 58.015625 17.1875 
L 47.609375 17.1875 
L 47.609375 0 
L 37.796875 0 
L 37.796875 17.1875 
L 4.890625 17.1875 
L 4.890625 26.703125 
z
" id="DejaVuSans-52"/>
      </defs>
      <g transform="translate(34.696875 210.007219)scale(0.1 -0.1)">
       <use xlink:href="#DejaVuSans-48"/>
       <use x="63.623047" xlink:href="#DejaVuSans-46"/>
       <use x="95.410156" xlink:href="#DejaVuSans-52"/>
      </g>
     </g>
    </g>
    <g id="ytick_4">
     <g id="line2d_13">
      <g>
       <use style="stroke:#000000;stroke-width:0.8;" x="57.6" xlink:href="#m34af9b556f" y="155.52"/>
      </g>
     </g>
     <g id="text_14">
      <!-- 0.6 -->
      <defs>
       <path d="M 33.015625 40.375 
Q 26.375 40.375 22.484375 35.828125 
Q 18.609375 31.296875 18.609375 23.390625 
Q 18.609375 15.53125 22.484375 10.953125 
Q 26.375 6.390625 33.015625 6.390625 
Q 39.65625 6.390625 43.53125 10.953125 
Q 47.40625 15.53125 47.40625 23.390625 
Q 47.40625 31.296875 43.53125 35.828125 
Q 39.65625 40.375 33.015625 40.375 
z
M 52.59375 71.296875 
L 52.59375 62.3125 
Q 48.875 64.0625 45.09375 64.984375 
Q 41.3125 65.921875 37.59375 65.921875 
Q 27.828125 65.921875 22.671875 59.328125 
Q 17.53125 52.734375 16.796875 39.40625 
Q 19.671875 43.65625 24.015625 45.921875 
Q 28.375 48.1875 33.59375 48.1875 
Q 44.578125 48.1875 50.953125 41.515625 
Q 57.328125 34.859375 57.328125 23.390625 
Q 57.328125 12.15625 50.6875 5.359375 
Q 44.046875 -1.421875 33.015625 -1.421875 
Q 20.359375 -1.421875 13.671875 8.265625 
Q 6.984375 17.96875 6.984375 36.375 
Q 6.984375 53.65625 15.1875 63.9375 
Q 23.390625 74.21875 37.203125 74.21875 
Q 40.921875 74.21875 44.703125 73.484375 
Q 48.484375 72.75 52.59375 71.296875 
z
" id="DejaVuSans-54"/>
      </defs>
      <g transform="translate(34.696875 159.319219)scale(0.1 -0.1)">
       <use xlink:href="#DejaVuSans-48"/>
       <use x="63.623047" xlink:href="#DejaVuSans-46"/>
       <use x="95.410156" xlink:href="#DejaVuSans-54"/>
      </g>
     </g>
    </g>
    <g id="ytick_5">
     <g id="line2d_14">
      <g>
       <use style="stroke:#000000;stroke-width:0.8;" x="57.6" xlink:href="#m34af9b556f" y="104.832"/>
      </g>
     </g>
     <g id="text_15">
      <!-- 0.8 -->
      <defs>
       <path d="M 31.78125 34.625 
Q 24.75 34.625 20.71875 30.859375 
Q 16.703125 27.09375 16.703125 20.515625 
Q 16.703125 13.921875 20.71875 10.15625 
Q 24.75 6.390625 31.78125 6.390625 
Q 38.8125 6.390625 42.859375 10.171875 
Q 46.921875 13.96875 46.921875 20.515625 
Q 46.921875 27.09375 42.890625 30.859375 
Q 38.875 34.625 31.78125 34.625 
z
M 21.921875 38.8125 
Q 15.578125 40.375 12.03125 44.71875 
Q 8.5 49.078125 8.5 55.328125 
Q 8.5 64.0625 14.71875 69.140625 
Q 20.953125 74.21875 31.78125 74.21875 
Q 42.671875 74.21875 48.875 69.140625 
Q 55.078125 64.0625 55.078125 55.328125 
Q 55.078125 49.078125 51.53125 44.71875 
Q 48 40.375 41.703125 38.8125 
Q 48.828125 37.15625 52.796875 32.3125 
Q 56.78125 27.484375 56.78125 20.515625 
Q 56.78125 9.90625 50.3125 4.234375 
Q 43.84375 -1.421875 31.78125 -1.421875 
Q 19.734375 -1.421875 13.25 4.234375 
Q 6.78125 9.90625 6.78125 20.515625 
Q 6.78125 27.484375 10.78125 32.3125 
Q 14.796875 37.15625 21.921875 38.8125 
z
M 18.3125 54.390625 
Q 18.3125 48.734375 21.84375 45.5625 
Q 25.390625 42.390625 31.78125 42.390625 
Q 38.140625 42.390625 41.71875 45.5625 
Q 45.3125 48.734375 45.3125 54.390625 
Q 45.3125 60.0625 41.71875 63.234375 
Q 38.140625 66.40625 31.78125 66.40625 
Q 25.390625 66.40625 21.84375 63.234375 
Q 18.3125 60.0625 18.3125 54.390625 
z
" id="DejaVuSans-56"/>
      </defs>
      <g transform="translate(34.696875 108.631219)scale(0.1 -0.1)">
       <use xlink:href="#DejaVuSans-48"/>
       <use x="63.623047" xlink:href="#DejaVuSans-46"/>
       <use x="95.410156" xlink:href="#DejaVuSans-56"/>
      </g>
     </g>
    </g>
    <g id="ytick_6">
     <g id="line2d_15">
      <g>
       <use style="stroke:#000000;stroke-width:0.8;" x="57.6" xlink:href="#m34af9b556f" y="54.144"/>
      </g>
     </g>
     <g id="text_16">
      <!-- 1.0 -->
      <g transform="translate(34.696875 57.943219)scale(0.1 -0.1)">
       <use xlink:href="#DejaVuSans-49"/>
       <use x="63.623047" xlink:href="#DejaVuSans-46"/>
       <use x="95.410156" xlink:href="#DejaVuSans-48"/>
      </g>
     </g>
    </g>
    <g id="text_17">
     <!-- $\psi^2$ -->
     <defs>
      <path d="M 24.859375 -1.21875 
Q 13.921875 0.59375 9.625 5.328125 
Q 4.34375 11.140625 6.640625 23 
L 12.796875 54.6875 
L 21.875 54.6875 
L 15.765625 23.34375 
Q 14.0625 14.40625 17.484375 10.6875 
Q 20.515625 7.46875 26.421875 6.78125 
L 35.6875 54.6875 
L 44.625 54.6875 
L 35.359375 6.84375 
Q 41.890625 7.515625 45.75 10.75 
Q 50.734375 14.84375 52.390625 23.390625 
L 58.453125 54.6875 
L 67.53125 54.6875 
L 61.375 23.046875 
Q 58.984375 10.75 51.5625 5.375 
Q 44.875 0.53125 33.796875 -1.171875 
L 29.984375 -20.796875 
L 21.046875 -20.796875 
z
" id="DejaVuSans-Oblique-968"/>
     </defs>
     <g transform="translate(28.596875 180.428)rotate(-90)scale(0.1 -0.1)">
      <use transform="translate(0 0.765625)" xlink:href="#DejaVuSans-Oblique-968"/>
      <use transform="translate(70.432943 39.046875)scale(0.7)" xlink:href="#DejaVuSans-50"/>
     </g>
    </g>
   </g>
   <g id="line2d_16">
    <path clip-path="url(#p31d7b17274)" d="M -1 307.584 
L 159.134118 307.478441 
L 167.536941 307.272309 
L 173.138824 306.954052 
L 178.740706 306.327251 
L 181.541647 305.816958 
L 184.342588 305.106704 
L 187.143529 304.120996 
L 189.944471 302.757224 
L 192.745412 300.876825 
L 195.546353 298.294296 
L 198.347294 294.764191 
L 201.148235 289.967021 
L 203.949176 283.496498 
L 206.750118 274.853292 
L 209.551059 263.454895 
L 212.352 248.677415 
L 215.152941 229.951797 
L 217.953882 206.939652 
L 220.754824 179.802272 
L 229.157647 89.282421 
L 231.958588 66.638841 
L 234.759529 54.144 
L 237.560471 54.144 
L 240.361412 66.638841 
L 243.162353 89.282421 
L 245.963294 118.262647 
L 251.565176 179.802272 
L 254.366118 206.939652 
L 257.167059 229.951797 
L 259.968 248.677415 
L 262.768941 263.454895 
L 265.569882 274.853292 
L 268.370824 283.496498 
L 271.171765 289.967021 
L 273.972706 294.764191 
L 276.773647 298.294296 
L 279.574588 300.876825 
L 282.375529 302.757224 
L 285.176471 304.120996 
L 287.977412 305.106704 
L 290.778353 305.816958 
L 293.579294 306.327251 
L 299.181176 306.954052 
L 304.783059 307.272309 
L 313.185882 307.478441 
L 329.991529 307.573251 
L 425.223529 307.584 
L 461.8 307.584 
L 461.8 307.584 
" style="fill:none;stroke:#1f77b4;stroke-linecap:square;stroke-width:1.5;"/>
   </g>
   <g id="line2d_17">
    <path clip-path="url(#p31d7b17274)" d="M -1 307.584 
L 125.522824 307.486739 
L 136.726588 307.224051 
L 142.328471 306.924601 
L 147.930353 306.411794 
L 153.532235 305.558168 
L 156.333176 304.947415 
L 159.134118 304.174506 
L 161.935059 303.202439 
L 164.736 301.987277 
L 167.536941 300.477237 
L 170.337882 298.61176 
L 173.138824 296.320637 
L 175.939765 293.523278 
L 178.740706 290.128243 
L 181.541647 286.033228 
L 184.342588 281.125745 
L 187.143529 275.284824 
L 189.944471 268.384146 
L 192.745412 260.297097 
L 195.546353 250.904278 
L 198.347294 240.104004 
L 201.148235 227.826184 
L 203.949176 214.049677 
L 206.750118 198.822649 
L 209.551059 182.284604 
L 215.152941 146.412997 
L 220.754824 110.030801 
L 223.555765 93.318217 
L 226.356706 78.642279 
L 229.157647 66.789511 
L 231.958588 58.451304 
L 234.759529 54.144 
L 237.560471 54.144 
L 240.361412 58.451304 
L 243.162353 66.789511 
L 245.963294 78.642279 
L 248.764235 93.318217 
L 251.565176 110.030801 
L 257.167059 146.412997 
L 262.768941 182.284604 
L 265.569882 198.822649 
L 268.370824 214.049677 
L 271.171765 227.826184 
L 273.972706 240.104004 
L 276.773647 250.904278 
L 279.574588 260.297097 
L 282.375529 268.384146 
L 285.176471 275.284824 
L 287.977412 281.125745 
L 290.778353 286.033228 
L 293.579294 290.128243 
L 296.380235 293.523278 
L 299.181176 296.320637 
L 301.982118 298.61176 
L 304.783059 300.477237 
L 307.584 301.987277 
L 310.384941 303.202439 
L 313.185882 304.174506 
L 315.986824 304.947415 
L 318.787765 305.558168 
L 324.389647 306.411794 
L 329.991529 306.924601 
L 335.593412 307.224051 
L 343.996235 307.447355 
L 358.000941 307.561237 
L 408.417882 307.583996 
L 461.8 307.584 
L 461.8 307.584 
" style="fill:none;stroke:#ff7f0e;stroke-linecap:square;stroke-width:1.5;"/>
   </g>
   <g id="line2d_18">
    <path clip-path="url(#p31d7b17274)" d="M -1 307.584 
L 103.115294 307.477392 
L 111.518118 307.266897 
L 117.12 306.965071 
L 122.721882 306.428376 
L 125.522824 306.030151 
L 128.323765 305.516443 
L 131.124706 304.860979 
L 133.925647 304.033597 
L 136.726588 303.000219 
L 139.527529 301.722951 
L 142.328471 300.160368 
L 145.129412 298.267984 
L 147.930353 295.998932 
L 150.731294 293.304866 
L 153.532235 290.137068 
L 156.333176 286.447765 
L 159.134118 282.191622 
L 161.935059 277.327373 
L 164.736 271.819553 
L 167.536941 265.640272 
L 170.337882 258.770961 
L 173.138824 251.204037 
L 175.939765 242.944402 
L 178.740706 234.010721 
L 181.541647 224.436406 
L 184.342588 214.270259 
L 187.143529 203.576713 
L 192.745412 180.94184 
L 206.750118 122.365543 
L 209.551059 111.388983 
L 212.352 100.998493 
L 215.152941 91.33777 
L 217.953882 82.544036 
L 220.754824 74.745036 
L 223.555765 68.056199 
L 226.356706 62.578043 
L 229.157647 58.393897 
L 231.958588 55.567995 
L 234.759529 54.144 
L 237.560471 54.144 
L 240.361412 55.567995 
L 243.162353 58.393897 
L 245.963294 62.578043 
L 248.764235 68.056199 
L 251.565176 74.745036 
L 254.366118 82.544036 
L 257.167059 91.33777 
L 259.968 100.998493 
L 262.768941 111.388983 
L 268.370824 133.781081 
L 285.176471 203.576713 
L 287.977412 214.270259 
L 290.778353 224.436406 
L 293.579294 234.010721 
L 296.380235 242.944402 
L 299.181176 251.204037 
L 301.982118 258.770961 
L 304.783059 265.640272 
L 307.584 271.819553 
L 310.384941 277.327373 
L 313.185882 282.191622 
L 315.986824 286.447765 
L 318.787765 290.137068 
L 321.588706 293.304866 
L 324.389647 295.998932 
L 327.190588 298.267984 
L 329.991529 300.160368 
L 332.792471 301.722951 
L 335.593412 303.000219 
L 338.394353 304.033597 
L 341.195294 304.860979 
L 343.996235 305.516443 
L 346.797176 306.030151 
L 352.399059 306.733664 
L 358.000941 307.138472 
L 366.403765 307.42885 
L 380.408471 307.563005 
L 428.024471 307.583998 
L 461.8 307.584 
L 461.8 307.584 
" style="fill:none;stroke:#2ca02c;stroke-linecap:square;stroke-width:1.5;"/>
   </g>
   <g id="line2d_19">
    <path clip-path="url(#p31d7b17274)" d="M -1 307.584 
L 89.110588 307.498094 
L 97.513412 307.299845 
L 103.115294 306.994358 
L 108.717176 306.422736 
L 111.518118 305.985196 
L 114.319059 305.410158 
L 117.12 304.664497 
L 119.920941 303.710374 
L 122.721882 302.505507 
L 125.522824 301.003762 
L 128.323765 299.156076 
L 131.124706 296.911734 
L 133.925647 294.219986 
L 136.726588 291.031949 
L 139.527529 287.302725 
L 142.328471 282.993614 
L 145.129412 278.074302 
L 147.930353 272.524869 
L 150.731294 266.337481 
L 153.532235 259.51763 
L 156.333176 252.084822 
L 159.134118 244.072649 
L 161.935059 235.528233 
L 164.736 226.511059 
L 170.337882 207.3477 
L 178.740706 177.039734 
L 184.342588 156.825505 
L 189.944471 137.385494 
L 192.745412 128.137388 
L 195.546353 119.285948 
L 198.347294 110.882802 
L 201.148235 102.971701 
L 203.949176 95.588869 
L 206.750118 88.763562 
L 209.551059 82.51876 
L 212.352 76.871956 
L 215.152941 71.835976 
L 217.953882 67.419808 
L 220.754824 63.629395 
L 223.555765 60.468371 
L 226.356706 57.938712 
L 229.157647 56.041307 
L 231.958588 54.776412 
L 234.759529 54.144 
L 237.560471 54.144 
L 240.361412 54.776412 
L 243.162353 56.041307 
L 245.963294 57.938712 
L 248.764235 60.468371 
L 251.565176 63.629395 
L 254.366118 67.419808 
L 257.167059 71.835976 
L 259.968 76.871956 
L 262.768941 82.51876 
L 265.569882 88.763562 
L 268.370824 95.588869 
L 271.171765 102.971701 
L 273.972706 110.882802 
L 276.773647 119.285948 
L 279.574588 128.137388 
L 285.176471 146.970657 
L 290.778353 166.875467 
L 301.982118 207.3477 
L 307.584 226.511059 
L 310.384941 235.528233 
L 313.185882 244.072649 
L 315.986824 252.084822 
L 318.787765 259.51763 
L 321.588706 266.337481 
L 324.389647 272.524869 
L 327.190588 278.074302 
L 329.991529 282.993614 
L 332.792471 287.302725 
L 335.593412 291.031949 
L 338.394353 294.219986 
L 341.195294 296.911734 
L 343.996235 299.156076 
L 346.797176 301.003762 
L 349.598118 302.505507 
L 352.399059 303.710374 
L 355.2 304.664497 
L 358.000941 305.410158 
L 360.801882 305.985196 
L 366.403765 306.751172 
L 372.005647 307.171951 
L 380.408471 307.454229 
L 394.413176 307.56969 
L 456.033882 307.584 
L 461.8 307.584 
L 461.8 307.584 
" style="fill:none;stroke:#d62728;stroke-linecap:square;stroke-width:1.5;"/>
   </g>
   <g id="line2d_20">
    <path clip-path="url(#p31d7b17274)" d="M -1 307.584 
L 80.707765 307.501793 
L 89.110588 307.294001 
L 94.712471 306.95974 
L 100.314353 306.315182 
L 103.115294 305.812896 
L 105.916235 305.145801 
L 108.717176 304.273097 
L 111.518118 303.148434 
L 114.319059 301.720563 
L 117.12 299.934472 
L 119.920941 297.733036 
L 122.721882 295.059157 
L 125.522824 291.858322 
L 128.323765 288.081453 
L 131.124706 283.687855 
L 133.925647 278.648055 
L 136.726588 272.946281 
L 139.527529 266.582363 
L 142.328471 259.572866 
L 145.129412 251.951323 
L 147.930353 243.767534 
L 150.731294 235.085976 
L 156.333176 216.546118 
L 164.736 187.158637 
L 170.337882 167.597451 
L 175.939765 148.829769 
L 178.740706 139.907708 
L 181.541647 131.361242 
L 184.342588 123.228718 
L 187.143529 115.5391 
L 189.944471 108.312755 
L 192.745412 101.562417 
L 195.546353 95.294242 
L 198.347294 89.508887 
L 201.148235 84.202576 
L 203.949176 79.368102 
L 206.750118 74.995759 
L 209.551059 71.074169 
L 212.352 67.59102 
L 215.152941 64.5337 
L 217.953882 61.889835 
L 220.754824 59.647739 
L 223.555765 57.796788 
L 226.356706 56.327714 
L 229.157647 55.232844 
L 231.958588 54.506274 
L 234.759529 54.144 
L 237.560471 54.144 
L 240.361412 54.506274 
L 243.162353 55.232844 
L 245.963294 56.327714 
L 248.764235 57.796788 
L 251.565176 59.647739 
L 254.366118 61.889835 
L 257.167059 64.5337 
L 259.968 67.59102 
L 262.768941 71.074169 
L 265.569882 74.995759 
L 268.370824 79.368102 
L 271.171765 84.202576 
L 273.972706 89.508887 
L 276.773647 95.294242 
L 279.574588 101.562417 
L 282.375529 108.312755 
L 285.176471 115.5391 
L 287.977412 123.228718 
L 290.778353 131.361242 
L 293.579294 139.907708 
L 299.181176 158.079148 
L 304.783059 177.31641 
L 315.986824 216.546118 
L 321.588706 235.085976 
L 324.389647 243.767534 
L 327.190588 251.951323 
L 329.991529 259.572866 
L 332.792471 266.582363 
L 335.593412 272.946281 
L 338.394353 278.648055 
L 341.195294 283.687855 
L 343.996235 288.081453 
L 346.797176 291.858322 
L 349.598118 295.059157 
L 352.399059 297.733036 
L 355.2 299.934472 
L 358.000941 301.720563 
L 360.801882 303.148434 
L 363.602824 304.273097 
L 366.403765 305.145801 
L 369.204706 305.812896 
L 372.005647 306.315182 
L 377.607529 306.95974 
L 383.209412 307.294001 
L 391.612235 307.501793 
L 408.417882 307.579641 
L 461.8 307.584 
L 461.8 307.584 
" style="fill:none;stroke:#9467bd;stroke-linecap:square;stroke-width:1.5;"/>
   </g>
   <g id="patch_3">
    <path d="M 57.6 307.584 
L 57.6 41.472 
" style="fill:none;stroke:#000000;stroke-linecap:square;stroke-linejoin:miter;stroke-width:0.8;"/>
   </g>
   <g id="patch_4">
    <path d="M 414.72 307.584 
L 414.72 41.472 
" style="fill:none;stroke:#000000;stroke-linecap:square;stroke-linejoin:miter;stroke-width:0.8;"/>
   </g>
   <g id="patch_5">
    <path d="M 57.6 307.584 
L 414.72 307.584 
" style="fill:none;stroke:#000000;stroke-linecap:square;stroke-linejoin:miter;stroke-width:0.8;"/>
   </g>
   <g id="patch_6">
    <path d="M 57.6 41.472 
L 414.72 41.472 
" style="fill:none;stroke:#000000;stroke-linecap:square;stroke-linejoin:miter;stroke-width:0.8;"/>
   </g>
   <g id="legend_1">
    <g id="patch_7">
     <path d="M 340.72 123.472 
L 407.72 123.472 
Q 409.72 123.472 409.72 121.472 
L 409.72 48.472 
Q 409.72 46.472 407.72 46.472 
L 340.72 46.472 
Q 338.72 46.472 338.72 48.472 
L 338.72 121.472 
Q 338.72 123.472 340.72 123.472 
z
" style="fill:#ffffff;opacity:0.8;stroke:#cccccc;stroke-linejoin:miter;"/>
    </g>
    <g id="line2d_21">
     <path d="M 342.72 54.672 
L 362.72 54.672 
" style="fill:none;stroke:#1f77b4;stroke-linecap:square;stroke-width:1.5;"/>
    </g>
    <g id="line2d_22"/>
    <g id="text_18">
     <!-- $\beta=$-20 -->
     <defs>
      <path d="M 13.625 3.375 
L 8.9375 -20.796875 
L -0.09375 -20.796875 
L 14.5 54.34375 
Q 18.84375 76.609375 39.65625 76.609375 
Q 60.75 76.609375 57.171875 57.8125 
Q 54.734375 44.4375 45.21875 39.546875 
Q 58.015625 35.15625 55.515625 22.125 
Q 51.125 -1.078125 27.484375 -1.03125 
Q 17.140625 -0.984375 13.625 3.375 
z
M 15.921875 15.09375 
Q 19.671875 6.59375 29.296875 6.640625 
Q 43.359375 6.640625 46.34375 21.96875 
Q 49.03125 35.75 26.171875 34.671875 
L 27.78125 42.96875 
Q 45.453125 42.671875 48.53125 58.59375 
Q 50.640625 69.34375 39.203125 69.28125 
Q 26.421875 69.28125 23.484375 54.046875 
z
" id="DejaVuSans-Oblique-946"/>
      <path d="M 10.59375 45.40625 
L 73.1875 45.40625 
L 73.1875 37.203125 
L 10.59375 37.203125 
z
M 10.59375 25.484375 
L 73.1875 25.484375 
L 73.1875 17.1875 
L 10.59375 17.1875 
z
" id="DejaVuSans-61"/>
      <path d="M 4.890625 31.390625 
L 31.203125 31.390625 
L 31.203125 23.390625 
L 4.890625 23.390625 
z
" id="DejaVuSans-45"/>
     </defs>
     <g transform="translate(370.72 58.172)scale(0.1 -0.1)">
      <use transform="translate(0 0.390625)" xlink:href="#DejaVuSans-Oblique-946"/>
      <use transform="translate(83.300781 0.390625)" xlink:href="#DejaVuSans-61"/>
      <use transform="translate(186.572266 0.390625)" xlink:href="#DejaVuSans-45"/>
      <use transform="translate(222.65625 0.390625)" xlink:href="#DejaVuSans-50"/>
      <use transform="translate(286.279297 0.390625)" xlink:href="#DejaVuSans-48"/>
     </g>
    </g>
    <g id="line2d_23">
     <path d="M 342.72 69.472 
L 362.72 69.472 
" style="fill:none;stroke:#ff7f0e;stroke-linecap:square;stroke-width:1.5;"/>
    </g>
    <g id="line2d_24"/>
    <g id="text_19">
     <!-- $\beta=$-10 -->
     <g transform="translate(370.72 72.972)scale(0.1 -0.1)">
      <use transform="translate(0 0.390625)" xlink:href="#DejaVuSans-Oblique-946"/>
      <use transform="translate(83.300781 0.390625)" xlink:href="#DejaVuSans-61"/>
      <use transform="translate(186.572266 0.390625)" xlink:href="#DejaVuSans-45"/>
      <use transform="translate(222.65625 0.390625)" xlink:href="#DejaVuSans-49"/>
      <use transform="translate(286.279297 0.390625)" xlink:href="#DejaVuSans-48"/>
     </g>
    </g>
    <g id="line2d_25">
     <path d="M 342.72 84.272 
L 362.72 84.272 
" style="fill:none;stroke:#2ca02c;stroke-linecap:square;stroke-width:1.5;"/>
    </g>
    <g id="line2d_26"/>
    <g id="text_20">
     <!-- $\beta=$0 -->
     <g transform="translate(370.72 87.772)scale(0.1 -0.1)">
      <use transform="translate(0 0.390625)" xlink:href="#DejaVuSans-Oblique-946"/>
      <use transform="translate(83.300781 0.390625)" xlink:href="#DejaVuSans-61"/>
      <use transform="translate(186.572266 0.390625)" xlink:href="#DejaVuSans-48"/>
     </g>
    </g>
    <g id="line2d_27">
     <path d="M 342.72 99.072 
L 362.72 99.072 
" style="fill:none;stroke:#d62728;stroke-linecap:square;stroke-width:1.5;"/>
    </g>
    <g id="line2d_28"/>
    <g id="text_21">
     <!-- $\beta=$10 -->
     <g transform="translate(370.72 102.572)scale(0.1 -0.1)">
      <use transform="translate(0 0.390625)" xlink:href="#DejaVuSans-Oblique-946"/>
      <use transform="translate(83.300781 0.390625)" xlink:href="#DejaVuSans-61"/>
      <use transform="translate(186.572266 0.390625)" xlink:href="#DejaVuSans-49"/>
      <use transform="translate(250.195312 0.390625)" xlink:href="#DejaVuSans-48"/>
     </g>
    </g>
    <g id="line2d_29">
     <path d="M 342.72 113.872 
L 362.72 113.872 
" style="fill:none;stroke:#9467bd;stroke-linecap:square;stroke-width:1.5;"/>
    </g>
    <g id="line2d_30"/>
    <g id="text_22">
     <!-- $\beta=$20 -->
     <g transform="translate(370.72 117.372)scale(0.1 -0.1)">
      <use transform="translate(0 0.390625)" xlink:href="#DejaVuSans-Oblique-946"/>
      <use transform="translate(83.300781 0.390625)" xlink:href="#DejaVuSans-61"/>
      <use transform="translate(186.572266 0.390625)" xlink:href="#DejaVuSans-50"/>
      <use transform="translate(250.195312 0.390625)" xlink:href="#DejaVuSans-48"/>
     </g>
    </g>
   </g>
  </g>
 </g>
 <defs>
  <clipPath id="p31d7b17274">
   <rect height="266.112" width="357.12" x="57.6" y="41.472"/>
  </clipPath>
 </defs>
</svg>
