<?xml version="1.0" encoding="utf-8" standalone="no"?>
<!DOCTYPE svg PUBLIC "-//W3C//DTD SVG 1.1//EN"
  "http://www.w3.org/Graphics/SVG/1.1/DTD/svg11.dtd">
<!-- Created with matplotlib (https://matplotlib.org/) -->
<svg height="345.6pt" version="1.1" viewBox="0 0 460.8 345.6" width="460.8pt" xmlns="http://www.w3.org/2000/svg" xmlns:xlink="http://www.w3.org/1999/xlink">
 <defs>
  <style type="text/css">
*{stroke-linecap:butt;stroke-linejoin:round;}
  </style>
 </defs>
 <g id="figure_1">
  <g id="patch_1">
   <path d="M 0 345.6 
L 460.8 345.6 
L 460.8 0 
L 0 0 
z
" style="fill:#ffffff;"/>
  </g>
  <g id="axes_1">
   <g id="patch_2">
    <path d="M 57.6 307.584 
L 414.72 307.584 
L 414.72 41.472 
L 57.6 41.472 
z
" style="fill:#ffffff;"/>
   </g>
   <g id="matplotlib.axis_1">
    <g id="xtick_1">
     <g id="line2d_1">
      <defs>
       <path d="M 0 0 
L 0 3.5 
" id="m2be8f64770" style="stroke:#000000;stroke-width:0.8;"/>
      </defs>
      <g>
       <use style="stroke:#000000;stroke-width:0.8;" x="57.6" xlink:href="#m2be8f64770" y="307.584"/>
      </g>
     </g>
     <g id="text_1">
      <!-- −1.00 -->
      <defs>
       <path d="M 10.59375 35.5 
L 73.1875 35.5 
L 73.1875 27.203125 
L 10.59375 27.203125 
z
" id="DejaVuSans-8722"/>
       <path d="M 12.40625 8.296875 
L 28.515625 8.296875 
L 28.515625 63.921875 
L 10.984375 60.40625 
L 10.984375 69.390625 
L 28.421875 72.90625 
L 38.28125 72.90625 
L 38.28125 8.296875 
L 54.390625 8.296875 
L 54.390625 0 
L 12.40625 0 
z
" id="DejaVuSans-49"/>
       <path d="M 10.6875 12.40625 
L 21 12.40625 
L 21 0 
L 10.6875 0 
z
" id="DejaVuSans-46"/>
       <path d="M 31.78125 66.40625 
Q 24.171875 66.40625 20.328125 58.90625 
Q 16.5 51.421875 16.5 36.375 
Q 16.5 21.390625 20.328125 13.890625 
Q 24.171875 6.390625 31.78125 6.390625 
Q 39.453125 6.390625 43.28125 13.890625 
Q 47.125 21.390625 47.125 36.375 
Q 47.125 51.421875 43.28125 58.90625 
Q 39.453125 66.40625 31.78125 66.40625 
z
M 31.78125 74.21875 
Q 44.046875 74.21875 50.515625 64.515625 
Q 56.984375 54.828125 56.984375 36.375 
Q 56.984375 17.96875 50.515625 8.265625 
Q 44.046875 -1.421875 31.78125 -1.421875 
Q 19.53125 -1.421875 13.0625 8.265625 
Q 6.59375 17.96875 6.59375 36.375 
Q 6.59375 54.828125 13.0625 64.515625 
Q 19.53125 74.21875 31.78125 74.21875 
z
" id="DejaVuSans-48"/>
      </defs>
      <g transform="translate(42.277344 322.182437)scale(0.1 -0.1)">
       <use xlink:href="#DejaVuSans-8722"/>
       <use x="83.789062" xlink:href="#DejaVuSans-49"/>
       <use x="147.412109" xlink:href="#DejaVuSans-46"/>
       <use x="179.199219" xlink:href="#DejaVuSans-48"/>
       <use x="242.822266" xlink:href="#DejaVuSans-48"/>
      </g>
     </g>
    </g>
    <g id="xtick_2">
     <g id="line2d_2">
      <g>
       <use style="stroke:#000000;stroke-width:0.8;" x="102.24" xlink:href="#m2be8f64770" y="307.584"/>
      </g>
     </g>
     <g id="text_2">
      <!-- −0.75 -->
      <defs>
       <path d="M 8.203125 72.90625 
L 55.078125 72.90625 
L 55.078125 68.703125 
L 28.609375 0 
L 18.3125 0 
L 43.21875 64.59375 
L 8.203125 64.59375 
z
" id="DejaVuSans-55"/>
       <path d="M 10.796875 72.90625 
L 49.515625 72.90625 
L 49.515625 64.59375 
L 19.828125 64.59375 
L 19.828125 46.734375 
Q 21.96875 47.46875 24.109375 47.828125 
Q 26.265625 48.1875 28.421875 48.1875 
Q 40.625 48.1875 47.75 41.5 
Q 54.890625 34.8125 54.890625 23.390625 
Q 54.890625 11.625 47.5625 5.09375 
Q 40.234375 -1.421875 26.90625 -1.421875 
Q 22.3125 -1.421875 17.546875 -0.640625 
Q 12.796875 0.140625 7.71875 1.703125 
L 7.71875 11.625 
Q 12.109375 9.234375 16.796875 8.0625 
Q 21.484375 6.890625 26.703125 6.890625 
Q 35.15625 6.890625 40.078125 11.328125 
Q 45.015625 15.765625 45.015625 23.390625 
Q 45.015625 31 40.078125 35.4375 
Q 35.15625 39.890625 26.703125 39.890625 
Q 22.75 39.890625 18.8125 39.015625 
Q 14.890625 38.140625 10.796875 36.28125 
z
" id="DejaVuSans-53"/>
      </defs>
      <g transform="translate(86.917344 322.182437)scale(0.1 -0.1)">
       <use xlink:href="#DejaVuSans-8722"/>
       <use x="83.789062" xlink:href="#DejaVuSans-48"/>
       <use x="147.412109" xlink:href="#DejaVuSans-46"/>
       <use x="179.199219" xlink:href="#DejaVuSans-55"/>
       <use x="242.822266" xlink:href="#DejaVuSans-53"/>
      </g>
     </g>
    </g>
    <g id="xtick_3">
     <g id="line2d_3">
      <g>
       <use style="stroke:#000000;stroke-width:0.8;" x="146.88" xlink:href="#m2be8f64770" y="307.584"/>
      </g>
     </g>
     <g id="text_3">
      <!-- −0.50 -->
      <g transform="translate(131.557344 322.182437)scale(0.1 -0.1)">
       <use xlink:href="#DejaVuSans-8722"/>
       <use x="83.789062" xlink:href="#DejaVuSans-48"/>
       <use x="147.412109" xlink:href="#DejaVuSans-46"/>
       <use x="179.199219" xlink:href="#DejaVuSans-53"/>
       <use x="242.822266" xlink:href="#DejaVuSans-48"/>
      </g>
     </g>
    </g>
    <g id="xtick_4">
     <g id="line2d_4">
      <g>
       <use style="stroke:#000000;stroke-width:0.8;" x="191.52" xlink:href="#m2be8f64770" y="307.584"/>
      </g>
     </g>
     <g id="text_4">
      <!-- −0.25 -->
      <defs>
       <path d="M 19.1875 8.296875 
L 53.609375 8.296875 
L 53.609375 0 
L 7.328125 0 
L 7.328125 8.296875 
Q 12.9375 14.109375 22.625 23.890625 
Q 32.328125 33.6875 34.8125 36.53125 
Q 39.546875 41.84375 41.421875 45.53125 
Q 43.3125 49.21875 43.3125 52.78125 
Q 43.3125 58.59375 39.234375 62.25 
Q 35.15625 65.921875 28.609375 65.921875 
Q 23.96875 65.921875 18.8125 64.3125 
Q 13.671875 62.703125 7.8125 59.421875 
L 7.8125 69.390625 
Q 13.765625 71.78125 18.9375 73 
Q 24.125 74.21875 28.421875 74.21875 
Q 39.75 74.21875 46.484375 68.546875 
Q 53.21875 62.890625 53.21875 53.421875 
Q 53.21875 48.921875 51.53125 44.890625 
Q 49.859375 40.875 45.40625 35.40625 
Q 44.1875 33.984375 37.640625 27.21875 
Q 31.109375 20.453125 19.1875 8.296875 
z
" id="DejaVuSans-50"/>
      </defs>
      <g transform="translate(176.197344 322.182437)scale(0.1 -0.1)">
       <use xlink:href="#DejaVuSans-8722"/>
       <use x="83.789062" xlink:href="#DejaVuSans-48"/>
       <use x="147.412109" xlink:href="#DejaVuSans-46"/>
       <use x="179.199219" xlink:href="#DejaVuSans-50"/>
       <use x="242.822266" xlink:href="#DejaVuSans-53"/>
      </g>
     </g>
    </g>
    <g id="xtick_5">
     <g id="line2d_5">
      <g>
       <use style="stroke:#000000;stroke-width:0.8;" x="236.16" xlink:href="#m2be8f64770" y="307.584"/>
      </g>
     </g>
     <g id="text_5">
      <!-- 0.00 -->
      <g transform="translate(225.027187 322.182437)scale(0.1 -0.1)">
       <use xlink:href="#DejaVuSans-48"/>
       <use x="63.623047" xlink:href="#DejaVuSans-46"/>
       <use x="95.410156" xlink:href="#DejaVuSans-48"/>
       <use x="159.033203" xlink:href="#DejaVuSans-48"/>
      </g>
     </g>
    </g>
    <g id="xtick_6">
     <g id="line2d_6">
      <g>
       <use style="stroke:#000000;stroke-width:0.8;" x="280.8" xlink:href="#m2be8f64770" y="307.584"/>
      </g>
     </g>
     <g id="text_6">
      <!-- 0.25 -->
      <g transform="translate(269.667188 322.182437)scale(0.1 -0.1)">
       <use xlink:href="#DejaVuSans-48"/>
       <use x="63.623047" xlink:href="#DejaVuSans-46"/>
       <use x="95.410156" xlink:href="#DejaVuSans-50"/>
       <use x="159.033203" xlink:href="#DejaVuSans-53"/>
      </g>
     </g>
    </g>
    <g id="xtick_7">
     <g id="line2d_7">
      <g>
       <use style="stroke:#000000;stroke-width:0.8;" x="325.44" xlink:href="#m2be8f64770" y="307.584"/>
      </g>
     </g>
     <g id="text_7">
      <!-- 0.50 -->
      <g transform="translate(314.307187 322.182437)scale(0.1 -0.1)">
       <use xlink:href="#DejaVuSans-48"/>
       <use x="63.623047" xlink:href="#DejaVuSans-46"/>
       <use x="95.410156" xlink:href="#DejaVuSans-53"/>
       <use x="159.033203" xlink:href="#DejaVuSans-48"/>
      </g>
     </g>
    </g>
    <g id="xtick_8">
     <g id="line2d_8">
      <g>
       <use style="stroke:#000000;stroke-width:0.8;" x="370.08" xlink:href="#m2be8f64770" y="307.584"/>
      </g>
     </g>
     <g id="text_8">
      <!-- 0.75 -->
      <g transform="translate(358.947188 322.182437)scale(0.1 -0.1)">
       <use xlink:href="#DejaVuSans-48"/>
       <use x="63.623047" xlink:href="#DejaVuSans-46"/>
       <use x="95.410156" xlink:href="#DejaVuSans-55"/>
       <use x="159.033203" xlink:href="#DejaVuSans-53"/>
      </g>
     </g>
    </g>
    <g id="xtick_9">
     <g id="line2d_9">
      <g>
       <use style="stroke:#000000;stroke-width:0.8;" x="414.72" xlink:href="#m2be8f64770" y="307.584"/>
      </g>
     </g>
     <g id="text_9">
      <!-- 1.00 -->
      <g transform="translate(403.587188 322.182437)scale(0.1 -0.1)">
       <use xlink:href="#DejaVuSans-49"/>
       <use x="63.623047" xlink:href="#DejaVuSans-46"/>
       <use x="95.410156" xlink:href="#DejaVuSans-48"/>
       <use x="159.033203" xlink:href="#DejaVuSans-48"/>
      </g>
     </g>
    </g>
    <g id="text_10">
     <!-- x -->
     <defs>
      <path d="M 54.890625 54.6875 
L 35.109375 28.078125 
L 55.90625 0 
L 45.3125 0 
L 29.390625 21.484375 
L 13.484375 0 
L 2.875 0 
L 24.125 28.609375 
L 4.6875 54.6875 
L 15.28125 54.6875 
L 29.78125 35.203125 
L 44.28125 54.6875 
z
" id="DejaVuSans-120"/>
     </defs>
     <g transform="translate(233.200625 335.860562)scale(0.1 -0.1)">
      <use xlink:href="#DejaVuSans-120"/>
     </g>
    </g>
   </g>
   <g id="matplotlib.axis_2">
    <g id="ytick_1">
     <g id="line2d_10">
      <defs>
       <path d="M 0 0 
L -3.5 0 
" id="m98d3360b68" style="stroke:#000000;stroke-width:0.8;"/>
      </defs>
      <g>
       <use style="stroke:#000000;stroke-width:0.8;" x="57.6" xlink:href="#m98d3360b68" y="295.488"/>
      </g>
     </g>
     <g id="text_11">
      <!-- 0 -->
      <g transform="translate(44.2375 299.287219)scale(0.1 -0.1)">
       <use xlink:href="#DejaVuSans-48"/>
      </g>
     </g>
    </g>
    <g id="ytick_2">
     <g id="line2d_11">
      <g>
       <use style="stroke:#000000;stroke-width:0.8;" x="57.6" xlink:href="#m98d3360b68" y="247.897743"/>
      </g>
     </g>
     <g id="text_12">
      <!-- 1 -->
      <g transform="translate(44.2375 251.696961)scale(0.1 -0.1)">
       <use xlink:href="#DejaVuSans-49"/>
      </g>
     </g>
    </g>
    <g id="ytick_3">
     <g id="line2d_12">
      <g>
       <use style="stroke:#000000;stroke-width:0.8;" x="57.6" xlink:href="#m98d3360b68" y="200.307485"/>
      </g>
     </g>
     <g id="text_13">
      <!-- 2 -->
      <g transform="translate(44.2375 204.106704)scale(0.1 -0.1)">
       <use xlink:href="#DejaVuSans-50"/>
      </g>
     </g>
    </g>
    <g id="ytick_4">
     <g id="line2d_13">
      <g>
       <use style="stroke:#000000;stroke-width:0.8;" x="57.6" xlink:href="#m98d3360b68" y="152.717228"/>
      </g>
     </g>
     <g id="text_14">
      <!-- 3 -->
      <defs>
       <path d="M 40.578125 39.3125 
Q 47.65625 37.796875 51.625 33 
Q 55.609375 28.21875 55.609375 21.1875 
Q 55.609375 10.40625 48.1875 4.484375 
Q 40.765625 -1.421875 27.09375 -1.421875 
Q 22.515625 -1.421875 17.65625 -0.515625 
Q 12.796875 0.390625 7.625 2.203125 
L 7.625 11.71875 
Q 11.71875 9.328125 16.59375 8.109375 
Q 21.484375 6.890625 26.8125 6.890625 
Q 36.078125 6.890625 40.9375 10.546875 
Q 45.796875 14.203125 45.796875 21.1875 
Q 45.796875 27.640625 41.28125 31.265625 
Q 36.765625 34.90625 28.71875 34.90625 
L 20.21875 34.90625 
L 20.21875 43.015625 
L 29.109375 43.015625 
Q 36.375 43.015625 40.234375 45.921875 
Q 44.09375 48.828125 44.09375 54.296875 
Q 44.09375 59.90625 40.109375 62.90625 
Q 36.140625 65.921875 28.71875 65.921875 
Q 24.65625 65.921875 20.015625 65.03125 
Q 15.375 64.15625 9.8125 62.3125 
L 9.8125 71.09375 
Q 15.4375 72.65625 20.34375 73.4375 
Q 25.25 74.21875 29.59375 74.21875 
Q 40.828125 74.21875 47.359375 69.109375 
Q 53.90625 64.015625 53.90625 55.328125 
Q 53.90625 49.265625 50.4375 45.09375 
Q 46.96875 40.921875 40.578125 39.3125 
z
" id="DejaVuSans-51"/>
      </defs>
      <g transform="translate(44.2375 156.516447)scale(0.1 -0.1)">
       <use xlink:href="#DejaVuSans-51"/>
      </g>
     </g>
    </g>
    <g id="ytick_5">
     <g id="line2d_14">
      <g>
       <use style="stroke:#000000;stroke-width:0.8;" x="57.6" xlink:href="#m98d3360b68" y="105.12697"/>
      </g>
     </g>
     <g id="text_15">
      <!-- 4 -->
      <defs>
       <path d="M 37.796875 64.3125 
L 12.890625 25.390625 
L 37.796875 25.390625 
z
M 35.203125 72.90625 
L 47.609375 72.90625 
L 47.609375 25.390625 
L 58.015625 25.390625 
L 58.015625 17.1875 
L 47.609375 17.1875 
L 47.609375 0 
L 37.796875 0 
L 37.796875 17.1875 
L 4.890625 17.1875 
L 4.890625 26.703125 
z
" id="DejaVuSans-52"/>
      </defs>
      <g transform="translate(44.2375 108.926189)scale(0.1 -0.1)">
       <use xlink:href="#DejaVuSans-52"/>
      </g>
     </g>
    </g>
    <g id="ytick_6">
     <g id="line2d_15">
      <g>
       <use style="stroke:#000000;stroke-width:0.8;" x="57.6" xlink:href="#m98d3360b68" y="57.536713"/>
      </g>
     </g>
     <g id="text_16">
      <!-- 5 -->
      <g transform="translate(44.2375 61.335932)scale(0.1 -0.1)">
       <use xlink:href="#DejaVuSans-53"/>
      </g>
     </g>
    </g>
    <g id="text_17">
     <!-- $\psi^2$ -->
     <defs>
      <path d="M 24.859375 -1.21875 
Q 13.921875 0.59375 9.625 5.328125 
Q 4.34375 11.140625 6.640625 23 
L 12.796875 54.6875 
L 21.875 54.6875 
L 15.765625 23.34375 
Q 14.0625 14.40625 17.484375 10.6875 
Q 20.515625 7.46875 26.421875 6.78125 
L 35.6875 54.6875 
L 44.625 54.6875 
L 35.359375 6.84375 
Q 41.890625 7.515625 45.75 10.75 
Q 50.734375 14.84375 52.390625 23.390625 
L 58.453125 54.6875 
L 67.53125 54.6875 
L 61.375 23.046875 
Q 58.984375 10.75 51.5625 5.375 
Q 44.875 0.53125 33.796875 -1.171875 
L 29.984375 -20.796875 
L 21.046875 -20.796875 
z
" id="DejaVuSans-Oblique-968"/>
     </defs>
     <g transform="translate(38.1375 180.428)rotate(-90)scale(0.1 -0.1)">
      <use transform="translate(0 0.765625)" xlink:href="#DejaVuSans-Oblique-968"/>
      <use transform="translate(70.432943 39.046875)scale(0.7)" xlink:href="#DejaVuSans-50"/>
     </g>
    </g>
   </g>
   <g id="line2d_16">
    <path clip-path="url(#pf8e39cfefd)" d="M -1 295.488 
L 159.134118 295.387239 
L 167.536941 295.190477 
L 173.138824 294.886686 
L 178.740706 294.288376 
L 181.541647 293.801278 
L 184.342588 293.123308 
L 187.143529 292.182405 
L 189.944471 290.880623 
L 192.745412 289.085697 
L 195.546353 286.620556 
L 198.347294 283.25091 
L 201.148235 278.671793 
L 203.949176 272.495385 
L 206.750118 264.245051 
L 209.551059 253.364763 
L 212.352 239.258987 
L 215.152941 221.384533 
L 217.953882 199.418395 
L 220.754824 173.514532 
L 229.157647 87.10922 
L 231.958588 65.494894 
L 234.759529 53.568 
L 237.560471 53.568 
L 240.361412 65.494894 
L 243.162353 87.10922 
L 245.963294 114.772163 
L 251.565176 173.514532 
L 254.366118 199.418395 
L 257.167059 221.384533 
L 259.968 239.258987 
L 262.768941 253.364763 
L 265.569882 264.245051 
L 268.370824 272.495385 
L 271.171765 278.671793 
L 273.972706 283.25091 
L 276.773647 286.620556 
L 279.574588 289.085697 
L 282.375529 290.880623 
L 285.176471 292.182405 
L 287.977412 293.123308 
L 290.778353 293.801278 
L 293.579294 294.288376 
L 299.181176 294.886686 
L 304.783059 295.190477 
L 313.185882 295.387239 
L 329.991529 295.477739 
L 428.024471 295.488 
L 461.8 295.488 
L 461.8 295.488 
" style="fill:none;stroke:#1f77b4;stroke-linecap:square;stroke-width:1.5;"/>
   </g>
   <g id="line2d_17">
    <path clip-path="url(#pf8e39cfefd)" d="M -1 295.488 
L 131.124706 295.379022 
L 142.328471 295.110402 
L 147.930353 294.816749 
L 153.532235 294.327929 
L 159.134118 293.53559 
L 161.935059 292.978946 
L 164.736 292.283096 
L 167.536941 291.418388 
L 170.337882 290.350143 
L 173.138824 289.038156 
L 175.939765 287.436279 
L 178.740706 285.492148 
L 181.541647 283.147182 
L 184.342588 280.336964 
L 187.143529 276.992223 
L 189.944471 273.040624 
L 192.745412 268.409662 
L 195.546353 263.030965 
L 198.347294 256.846304 
L 201.148235 249.815542 
L 203.949176 241.926573 
L 206.750118 233.206979 
L 209.551059 223.736645 
L 215.152941 203.195154 
L 220.754824 182.36128 
L 223.555765 172.790999 
L 226.356706 164.38698 
L 229.157647 157.59962 
L 231.958588 152.824835 
L 234.759529 150.358303 
L 237.560471 150.358303 
L 240.361412 152.824835 
L 243.162353 157.59962 
L 245.963294 164.38698 
L 248.764235 172.790999 
L 251.565176 182.36128 
L 257.167059 203.195154 
L 262.768941 223.736645 
L 265.569882 233.206979 
L 268.370824 241.926573 
L 271.171765 249.815542 
L 273.972706 256.846304 
L 276.773647 263.030965 
L 279.574588 268.409662 
L 282.375529 273.040624 
L 285.176471 276.992223 
L 287.977412 280.336964 
L 290.778353 283.147182 
L 293.579294 285.492148 
L 296.380235 287.436279 
L 299.181176 289.038156 
L 301.982118 290.350143 
L 304.783059 291.418388 
L 307.584 292.283096 
L 310.384941 292.978946 
L 313.185882 293.53559 
L 318.787765 294.327929 
L 324.389647 294.816749 
L 332.792471 295.207935 
L 343.996235 295.409752 
L 366.403765 295.484047 
L 461.8 295.488 
L 461.8 295.488 
" style="fill:none;stroke:#ff7f0e;stroke-linecap:square;stroke-width:1.5;"/>
   </g>
   <g id="line2d_18">
    <path clip-path="url(#pf8e39cfefd)" d="M -1 295.488 
L 108.717176 295.40606 
L 119.920941 295.175708 
L 128.323765 294.728675 
L 133.925647 294.184089 
L 139.527529 293.335488 
L 142.328471 292.761618 
L 145.129412 292.066627 
L 147.930353 291.233301 
L 150.731294 290.243886 
L 153.532235 289.08049 
L 156.333176 287.725567 
L 159.134118 286.162468 
L 161.935059 284.376038 
L 164.736 282.353252 
L 167.536941 280.083866 
L 170.337882 277.561063 
L 173.138824 274.782056 
L 175.939765 271.748646 
L 178.740706 268.467688 
L 181.541647 264.951453 
L 184.342588 261.217862 
L 189.944471 253.198951 
L 195.546353 244.666864 
L 203.949176 231.657637 
L 209.551059 223.43398 
L 212.352 219.617998 
L 215.152941 216.070028 
L 217.953882 212.840467 
L 220.754824 209.976229 
L 223.555765 207.519705 
L 226.356706 205.507813 
L 229.157647 203.971156 
L 231.958588 202.933323 
L 234.759529 202.410351 
L 237.560471 202.410351 
L 240.361412 202.933323 
L 243.162353 203.971156 
L 245.963294 205.507813 
L 248.764235 207.519705 
L 251.565176 209.976229 
L 254.366118 212.840467 
L 257.167059 216.070028 
L 259.968 219.617998 
L 262.768941 223.43398 
L 268.370824 231.657637 
L 285.176471 257.290582 
L 287.977412 261.217862 
L 290.778353 264.951453 
L 293.579294 268.467688 
L 296.380235 271.748646 
L 299.181176 274.782056 
L 301.982118 277.561063 
L 304.783059 280.083866 
L 307.584 282.353252 
L 310.384941 284.376038 
L 313.185882 286.162468 
L 315.986824 287.725567 
L 318.787765 289.08049 
L 321.588706 290.243886 
L 324.389647 291.233301 
L 327.190588 292.066627 
L 329.991529 292.761618 
L 335.593412 293.804574 
L 341.195294 294.487951 
L 346.797176 294.917338 
L 355.2 295.260694 
L 366.403765 295.43102 
L 391.612235 295.486768 
L 461.8 295.488 
L 461.8 295.488 
" style="fill:none;stroke:#2ca02c;stroke-linecap:square;stroke-width:1.5;"/>
   </g>
   <g id="line2d_19">
    <path clip-path="url(#pf8e39cfefd)" d="M -1 295.488 
L 97.513412 295.407433 
L 108.717176 295.158745 
L 114.319059 294.871648 
L 119.920941 294.389705 
L 125.522824 293.622296 
L 131.124706 292.462078 
L 133.925647 291.698883 
L 136.726588 290.794974 
L 139.527529 289.737622 
L 142.328471 288.515855 
L 145.129412 287.121075 
L 147.930353 285.547637 
L 150.731294 283.793319 
L 153.532235 281.859677 
L 156.333176 279.752243 
L 159.134118 277.480541 
L 164.736 272.501279 
L 170.337882 267.067866 
L 181.541647 255.592719 
L 187.143529 249.949081 
L 192.745412 244.609259 
L 198.347294 239.717043 
L 201.148235 237.473998 
L 203.949176 235.380733 
L 206.750118 233.445545 
L 209.551059 231.674948 
L 212.352 230.073902 
L 215.152941 228.646043 
L 217.953882 227.393921 
L 220.754824 226.319221 
L 223.555765 225.422971 
L 226.356706 224.705734 
L 229.157647 224.16776 
L 231.958588 223.809122 
L 234.759529 223.629814 
L 237.560471 223.629814 
L 240.361412 223.809122 
L 243.162353 224.16776 
L 245.963294 224.705734 
L 248.764235 225.422971 
L 251.565176 226.319221 
L 254.366118 227.393921 
L 257.167059 228.646043 
L 259.968 230.073902 
L 262.768941 231.674948 
L 265.569882 233.445545 
L 268.370824 235.380733 
L 271.171765 237.473998 
L 276.773647 242.099598 
L 282.375529 247.231387 
L 287.977412 252.74324 
L 304.783059 269.830481 
L 310.384941 275.057931 
L 313.185882 277.480541 
L 315.986824 279.752243 
L 318.787765 281.859677 
L 321.588706 283.793319 
L 324.389647 285.547637 
L 327.190588 287.121075 
L 329.991529 288.515855 
L 332.792471 289.737622 
L 335.593412 290.794974 
L 338.394353 291.698883 
L 341.195294 292.462078 
L 346.797176 293.622296 
L 352.399059 294.389705 
L 358.000941 294.871648 
L 366.403765 295.251867 
L 377.607529 295.433181 
L 402.816 295.487094 
L 461.8 295.488 
L 461.8 295.488 
" style="fill:none;stroke:#d62728;stroke-linecap:square;stroke-width:1.5;"/>
   </g>
   <g id="line2d_20">
    <path clip-path="url(#pf8e39cfefd)" d="M -1 295.488 
L 91.911529 295.384006 
L 100.314353 295.180125 
L 105.916235 294.896378 
L 111.518118 294.411723 
L 117.12 293.631864 
L 119.920941 293.097692 
L 122.721882 292.448882 
L 125.522824 291.672209 
L 128.323765 290.755762 
L 131.124706 289.689668 
L 133.925647 288.466775 
L 136.726588 287.083256 
L 139.527529 285.539069 
L 142.328471 283.838235 
L 145.129412 281.988889 
L 150.731294 277.896561 
L 156.333176 273.397917 
L 175.939765 256.966737 
L 181.541647 252.728049 
L 187.143529 248.888851 
L 192.745412 245.497449 
L 198.347294 242.572694 
L 203.949176 240.112061 
L 209.551059 238.099562 
L 215.152941 236.512536 
L 220.754824 235.326971 
L 226.356706 234.521377 
L 231.958588 234.079409 
L 237.560471 233.991505 
L 243.162353 234.25571 
L 248.764235 234.877843 
L 254.366118 235.871009 
L 259.968 237.254386 
L 265.569882 239.051125 
L 271.171765 241.285133 
L 276.773647 243.976494 
L 282.375529 247.135399 
L 287.977412 250.754715 
L 293.579294 254.801825 
L 299.181176 259.211073 
L 307.584 266.267128 
L 315.986824 273.397917 
L 321.588706 277.896561 
L 327.190588 281.988889 
L 329.991529 283.838235 
L 332.792471 285.539069 
L 335.593412 287.083256 
L 338.394353 288.466775 
L 341.195294 289.689668 
L 343.996235 290.755762 
L 346.797176 291.672209 
L 349.598118 292.448882 
L 352.399059 293.097692 
L 358.000941 294.065254 
L 363.602824 294.684619 
L 369.204706 295.058247 
L 377.607529 295.336525 
L 391.612235 295.468053 
L 442.029176 295.488 
L 461.8 295.488 
L 461.8 295.488 
" style="fill:none;stroke:#9467bd;stroke-linecap:square;stroke-width:1.5;"/>
   </g>
   <g id="patch_3">
    <path d="M 57.6 307.584 
L 57.6 41.472 
" style="fill:none;stroke:#000000;stroke-linecap:square;stroke-linejoin:miter;stroke-width:0.8;"/>
   </g>
   <g id="patch_4">
    <path d="M 414.72 307.584 
L 414.72 41.472 
" style="fill:none;stroke:#000000;stroke-linecap:square;stroke-linejoin:miter;stroke-width:0.8;"/>
   </g>
   <g id="patch_5">
    <path d="M 57.6 307.584 
L 414.72 307.584 
" style="fill:none;stroke:#000000;stroke-linecap:square;stroke-linejoin:miter;stroke-width:0.8;"/>
   </g>
   <g id="patch_6">
    <path d="M 57.6 41.472 
L 414.72 41.472 
" style="fill:none;stroke:#000000;stroke-linecap:square;stroke-linejoin:miter;stroke-width:0.8;"/>
   </g>
   <g id="legend_1">
    <g id="patch_7">
     <path d="M 340.72 123.472 
L 407.72 123.472 
Q 409.72 123.472 409.72 121.472 
L 409.72 48.472 
Q 409.72 46.472 407.72 46.472 
L 340.72 46.472 
Q 338.72 46.472 338.72 48.472 
L 338.72 121.472 
Q 338.72 123.472 340.72 123.472 
z
" style="fill:#ffffff;opacity:0.8;stroke:#cccccc;stroke-linejoin:miter;"/>
    </g>
    <g id="line2d_21">
     <path d="M 342.72 54.672 
L 362.72 54.672 
" style="fill:none;stroke:#1f77b4;stroke-linecap:square;stroke-width:1.5;"/>
    </g>
    <g id="line2d_22"/>
    <g id="text_18">
     <!-- $\beta=$-20 -->
     <defs>
      <path d="M 13.625 3.375 
L 8.9375 -20.796875 
L -0.09375 -20.796875 
L 14.5 54.34375 
Q 18.84375 76.609375 39.65625 76.609375 
Q 60.75 76.609375 57.171875 57.8125 
Q 54.734375 44.4375 45.21875 39.546875 
Q 58.015625 35.15625 55.515625 22.125 
Q 51.125 -1.078125 27.484375 -1.03125 
Q 17.140625 -0.984375 13.625 3.375 
z
M 15.921875 15.09375 
Q 19.671875 6.59375 29.296875 6.640625 
Q 43.359375 6.640625 46.34375 21.96875 
Q 49.03125 35.75 26.171875 34.671875 
L 27.78125 42.96875 
Q 45.453125 42.671875 48.53125 58.59375 
Q 50.640625 69.34375 39.203125 69.28125 
Q 26.421875 69.28125 23.484375 54.046875 
z
" id="DejaVuSans-Oblique-946"/>
      <path d="M 10.59375 45.40625 
L 73.1875 45.40625 
L 73.1875 37.203125 
L 10.59375 37.203125 
z
M 10.59375 25.484375 
L 73.1875 25.484375 
L 73.1875 17.1875 
L 10.59375 17.1875 
z
" id="DejaVuSans-61"/>
      <path d="M 4.890625 31.390625 
L 31.203125 31.390625 
L 31.203125 23.390625 
L 4.890625 23.390625 
z
" id="DejaVuSans-45"/>
     </defs>
     <g transform="translate(370.72 58.172)scale(0.1 -0.1)">
      <use transform="translate(0 0.390625)" xlink:href="#DejaVuSans-Oblique-946"/>
      <use transform="translate(83.300781 0.390625)" xlink:href="#DejaVuSans-61"/>
      <use transform="translate(186.572266 0.390625)" xlink:href="#DejaVuSans-45"/>
      <use transform="translate(222.65625 0.390625)" xlink:href="#DejaVuSans-50"/>
      <use transform="translate(286.279297 0.390625)" xlink:href="#DejaVuSans-48"/>
     </g>
    </g>
    <g id="line2d_23">
     <path d="M 342.72 69.472 
L 362.72 69.472 
" style="fill:none;stroke:#ff7f0e;stroke-linecap:square;stroke-width:1.5;"/>
    </g>
    <g id="line2d_24"/>
    <g id="text_19">
     <!-- $\beta=$-10 -->
     <g transform="translate(370.72 72.972)scale(0.1 -0.1)">
      <use transform="translate(0 0.390625)" xlink:href="#DejaVuSans-Oblique-946"/>
      <use transform="translate(83.300781 0.390625)" xlink:href="#DejaVuSans-61"/>
      <use transform="translate(186.572266 0.390625)" xlink:href="#DejaVuSans-45"/>
      <use transform="translate(222.65625 0.390625)" xlink:href="#DejaVuSans-49"/>
      <use transform="translate(286.279297 0.390625)" xlink:href="#DejaVuSans-48"/>
     </g>
    </g>
    <g id="line2d_25">
     <path d="M 342.72 84.272 
L 362.72 84.272 
" style="fill:none;stroke:#2ca02c;stroke-linecap:square;stroke-width:1.5;"/>
    </g>
    <g id="line2d_26"/>
    <g id="text_20">
     <!-- $\beta=$0 -->
     <g transform="translate(370.72 87.772)scale(0.1 -0.1)">
      <use transform="translate(0 0.390625)" xlink:href="#DejaVuSans-Oblique-946"/>
      <use transform="translate(83.300781 0.390625)" xlink:href="#DejaVuSans-61"/>
      <use transform="translate(186.572266 0.390625)" xlink:href="#DejaVuSans-48"/>
     </g>
    </g>
    <g id="line2d_27">
     <path d="M 342.72 99.072 
L 362.72 99.072 
" style="fill:none;stroke:#d62728;stroke-linecap:square;stroke-width:1.5;"/>
    </g>
    <g id="line2d_28"/>
    <g id="text_21">
     <!-- $\beta=$10 -->
     <g transform="translate(370.72 102.572)scale(0.1 -0.1)">
      <use transform="translate(0 0.390625)" xlink:href="#DejaVuSans-Oblique-946"/>
      <use transform="translate(83.300781 0.390625)" xlink:href="#DejaVuSans-61"/>
      <use transform="translate(186.572266 0.390625)" xlink:href="#DejaVuSans-49"/>
      <use transform="translate(250.195312 0.390625)" xlink:href="#DejaVuSans-48"/>
     </g>
    </g>
    <g id="line2d_29">
     <path d="M 342.72 113.872 
L 362.72 113.872 
" style="fill:none;stroke:#9467bd;stroke-linecap:square;stroke-width:1.5;"/>
    </g>
    <g id="line2d_30"/>
    <g id="text_22">
     <!-- $\beta=$20 -->
     <g transform="translate(370.72 117.372)scale(0.1 -0.1)">
      <use transform="translate(0 0.390625)" xlink:href="#DejaVuSans-Oblique-946"/>
      <use transform="translate(83.300781 0.390625)" xlink:href="#DejaVuSans-61"/>
      <use transform="translate(186.572266 0.390625)" xlink:href="#DejaVuSans-50"/>
      <use transform="translate(250.195312 0.390625)" xlink:href="#DejaVuSans-48"/>
     </g>
    </g>
   </g>
  </g>
 </g>
 <defs>
  <clipPath id="pf8e39cfefd">
   <rect height="266.112" width="357.12" x="57.6" y="41.472"/>
  </clipPath>
 </defs>
</svg>
