<?xml version="1.0" encoding="UTF-8" standalone="no"?>
<!-- Created with Inkscape (http://www.inkscape.org/) -->

<svg
   xmlns:dc="http://purl.org/dc/elements/1.1/"
   xmlns:cc="http://creativecommons.org/ns#"
   xmlns:rdf="http://www.w3.org/1999/02/22-rdf-syntax-ns#"
   xmlns:svg="http://www.w3.org/2000/svg"
   xmlns="http://www.w3.org/2000/svg"
   xmlns:sodipodi="http://sodipodi.sourceforge.net/DTD/sodipodi-0.dtd"
   xmlns:inkscape="http://www.inkscape.org/namespaces/inkscape"
   width="772.36932mm"
   height="184.70348mm"
   viewBox="0 0 772.36933 184.70348"
   version="1.1"
   id="svg4577"
   inkscape:version="0.92.1 r15371"
   sodipodi:docname="bonding_demo.svg">
  <defs
     id="defs4571">
    <clipPath
       clipPathUnits="userSpaceOnUse"
       id="clipPath4503">
      <path
         d="M 6,2 V 3450 H 4610 V 2 Z"
         id="path4501"
         inkscape:connector-curvature="0" />
    </clipPath>
    <clipPath
       clipPathUnits="userSpaceOnUse"
       id="clipPath4513">
      <path
         d="m 582,382.199 h 3571 v 2661 H 582 Z"
         id="path4511"
         inkscape:connector-curvature="0" />
    </clipPath>
    <clipPath
       clipPathUnits="userSpaceOnUse"
       id="clipPath4569">
      <path
         d="M 6,2 V 3450 H 4610 V 2 Z"
         id="path4567"
         inkscape:connector-curvature="0" />
    </clipPath>
    <clipPath
       clipPathUnits="userSpaceOnUse"
       id="clipPath5266">
      <path
         d="M 6,2 V 3450 H 4610 V 2 Z"
         id="path5264"
         inkscape:connector-curvature="0" />
    </clipPath>
    <clipPath
       clipPathUnits="userSpaceOnUse"
       id="clipPath5276">
      <path
         d="m 582,382.199 h 3571 v 2661 H 582 Z"
         id="path5274"
         inkscape:connector-curvature="0" />
    </clipPath>
    <clipPath
       clipPathUnits="userSpaceOnUse"
       id="clipPath5332">
      <path
         d="M 6,2 V 3450 H 4610 V 2 Z"
         id="path5330"
         inkscape:connector-curvature="0" />
    </clipPath>
    <clipPath
       clipPathUnits="userSpaceOnUse"
       id="clipPath6021">
      <path
         d="M 6,2 V 3450 H 4610 V 2 Z"
         id="path6019"
         inkscape:connector-curvature="0" />
    </clipPath>
    <clipPath
       clipPathUnits="userSpaceOnUse"
       id="clipPath6031">
      <path
         d="m 582,382.199 h 3571 v 2661 H 582 Z"
         id="path6029"
         inkscape:connector-curvature="0" />
    </clipPath>
    <clipPath
       clipPathUnits="userSpaceOnUse"
       id="clipPath6087">
      <path
         d="M 6,2 V 3450 H 4610 V 2 Z"
         id="path6085"
         inkscape:connector-curvature="0" />
    </clipPath>
    <clipPath
       clipPathUnits="userSpaceOnUse"
       id="clipPath6776">
      <path
         d="M 6,2 V 3450 H 4610 V 2 Z"
         id="path6774"
         inkscape:connector-curvature="0" />
    </clipPath>
    <clipPath
       clipPathUnits="userSpaceOnUse"
       id="clipPath6786">
      <path
         d="m 582,382.199 h 3571 v 2661 H 582 Z"
         id="path6784"
         inkscape:connector-curvature="0" />
    </clipPath>
    <clipPath
       clipPathUnits="userSpaceOnUse"
       id="clipPath6842">
      <path
         d="M 6,2 V 3450 H 4610 V 2 Z"
         id="path6840"
         inkscape:connector-curvature="0" />
    </clipPath>
    <clipPath
       clipPathUnits="userSpaceOnUse"
       id="clipPath5009">
      <path
         d="m 582,382.199 h 3571 v 2661 H 582 Z"
         id="path5007"
         inkscape:connector-curvature="0" />
    </clipPath>
    <clipPath
       clipPathUnits="userSpaceOnUse"
       id="clipPath5811">
      <path
         d="m 582,382.199 h 3571 v 2661 H 582 Z"
         id="path5809"
         inkscape:connector-curvature="0" />
    </clipPath>
    <clipPath
       clipPathUnits="userSpaceOnUse"
       id="clipPath6567">
      <path
         d="m 582,382.199 h 3571 v 2661 H 582 Z"
         id="path6565"
         inkscape:connector-curvature="0" />
    </clipPath>
    <clipPath
       clipPathUnits="userSpaceOnUse"
       id="clipPath7323">
      <path
         d="m 582,382.199 h 3571 v 2661 H 582 Z"
         id="path7321"
         inkscape:connector-curvature="0" />
    </clipPath>
  </defs>
  <sodipodi:namedview
     id="base"
     pagecolor="#ffffff"
     bordercolor="#666666"
     borderopacity="1.0"
     inkscape:pageopacity="0.0"
     inkscape:pageshadow="2"
     inkscape:zoom="0.35"
     inkscape:cx="1514.7899"
     inkscape:cy="449.19057"
     inkscape:document-units="mm"
     inkscape:current-layer="layer1"
     showgrid="false"
     inkscape:window-width="1920"
     inkscape:window-height="1001"
     inkscape:window-x="-9"
     inkscape:window-y="-9"
     inkscape:window-maximized="1"
     fit-margin-top="0"
     fit-margin-left="0"
     fit-margin-right="0"
     fit-margin-bottom="0" />
  <metadata
     id="metadata4574">
    <rdf:RDF>
      <cc:Work
         rdf:about="">
        <dc:format>image/svg+xml</dc:format>
        <dc:type
           rdf:resource="http://purl.org/dc/dcmitype/StillImage" />
        <dc:title></dc:title>
      </cc:Work>
    </rdf:RDF>
  </metadata>
  <g
     inkscape:label="Layer 1"
     inkscape:groupmode="layer"
     id="layer1"
     transform="translate(1.1086464e-5,-189.02765)">
    <g
       id="g9241">
      <g
         id="g9120">
        <rect
           style="fill:none;fill-opacity:1;stroke:#808080;stroke-width:3.40408444;stroke-linejoin:round;stroke-miterlimit:4;stroke-dasharray:none;stroke-dashoffset:10;stroke-opacity:0.99215686"
           id="rect7637"
           width="180.36943"
           height="180.36943"
           x="1.7020311"
           y="190.72969" />
        <g
           id="g5003"
           transform="matrix(0.05739066,0,0,-0.05739066,-43.991378,379.20854)"
           style="stroke-width:26.13665771;stroke-miterlimit:4;stroke-dasharray:none">
          <g
             clip-path="url(#clipPath5009)"
             id="g5005"
             style="stroke-width:26.13665771;stroke-miterlimit:4;stroke-dasharray:none">
            <path
               inkscape:connector-curvature="0"
               id="path5011"
               style="fill:#9acd32;fill-opacity:1;fill-rule:nonzero;stroke:none;stroke-width:26.13665771;stroke-miterlimit:4;stroke-dasharray:none"
               d="m 3089,969.586 c 69.53,0 136.23,27.629 185.4,76.794 49.17,49.17 76.8,115.87 76.8,185.41 0,69.54 -27.63,136.23 -76.8,185.41 -49.17,49.16 -115.87,76.79 -185.4,76.79 -69.54,0 -136.24,-27.63 -185.41,-76.79 -49.17,-49.18 -76.8,-115.87 -76.8,-185.41 0,-69.54 27.63,-136.24 76.8,-185.41 49.17,-49.165 115.87,-76.794 185.41,-76.794" />
            <path
               inkscape:connector-curvature="0"
               id="path5013"
               style="fill:none;stroke:#000000;stroke-width:26.13665771;stroke-linecap:butt;stroke-linejoin:round;stroke-miterlimit:4;stroke-dasharray:none;stroke-opacity:1"
               d="m 3089,969.586 c 69.53,0 136.23,27.629 185.4,76.794 49.17,49.17 76.8,115.87 76.8,185.41 0,69.54 -27.63,136.23 -76.8,185.41 -49.17,49.16 -115.87,76.79 -185.4,76.79 -69.54,0 -136.24,-27.63 -185.41,-76.79 -49.17,-49.18 -76.8,-115.87 -76.8,-185.41 0,-69.54 27.63,-136.24 76.8,-185.41 49.17,-49.165 115.87,-76.794 185.41,-76.794 z" />
            <path
               inkscape:connector-curvature="0"
               id="path5015"
               style="fill:#9acd32;fill-opacity:1;fill-rule:nonzero;stroke:none;stroke-width:26.13665771;stroke-miterlimit:4;stroke-dasharray:none"
               d="m 2367.6,729.121 c 69.54,0 136.24,27.629 185.4,76.797 49.18,49.172 76.8,115.871 76.8,185.406 0,69.536 -27.62,136.236 -76.8,185.406 -49.16,49.17 -115.86,76.8 -185.4,76.8 -69.54,0 -136.24,-27.63 -185.4,-76.8 -49.18,-49.17 -76.8,-115.87 -76.8,-185.406 0,-69.535 27.62,-136.234 76.8,-185.406 49.16,-49.168 115.86,-76.797 185.4,-76.797" />
            <path
               inkscape:connector-curvature="0"
               id="path5017"
               style="fill:none;stroke:#000000;stroke-width:26.13665771;stroke-linecap:butt;stroke-linejoin:round;stroke-miterlimit:4;stroke-dasharray:none;stroke-opacity:1"
               d="m 2367.6,729.121 c 69.54,0 136.24,27.629 185.4,76.797 49.18,49.172 76.8,115.871 76.8,185.406 0,69.536 -27.62,136.236 -76.8,185.406 -49.16,49.17 -115.86,76.8 -185.4,76.8 -69.54,0 -136.24,-27.63 -185.4,-76.8 -49.18,-49.17 -76.8,-115.87 -76.8,-185.406 0,-69.535 27.62,-136.234 76.8,-185.406 49.16,-49.168 115.86,-76.797 185.4,-76.797 z" />
            <path
               inkscape:connector-curvature="0"
               id="path5019"
               style="fill:#9acd32;fill-opacity:1;fill-rule:nonzero;stroke:none;stroke-width:26.13665771;stroke-miterlimit:4;stroke-dasharray:none"
               d="m 1886.67,1210.05 c 69.54,0 136.24,27.63 185.4,76.8 49.18,49.17 76.8,115.87 76.8,185.4 0,69.54 -27.62,136.24 -76.8,185.41 -49.16,49.17 -115.86,76.8 -185.4,76.8 -69.54,0 -136.24,-27.63 -185.4,-76.8 -49.18,-49.17 -76.8,-115.87 -76.8,-185.41 0,-69.53 27.62,-136.23 76.8,-185.4 49.16,-49.17 115.86,-76.8 185.4,-76.8" />
            <path
               inkscape:connector-curvature="0"
               id="path5021"
               style="fill:none;stroke:#000000;stroke-width:26.13665771;stroke-linecap:butt;stroke-linejoin:round;stroke-miterlimit:4;stroke-dasharray:none;stroke-opacity:1"
               d="m 1886.67,1210.05 c 69.54,0 136.24,27.63 185.4,76.8 49.18,49.17 76.8,115.87 76.8,185.4 0,69.54 -27.62,136.24 -76.8,185.41 -49.16,49.17 -115.86,76.8 -185.4,76.8 -69.54,0 -136.24,-27.63 -185.4,-76.8 -49.18,-49.17 -76.8,-115.87 -76.8,-185.41 0,-69.53 27.62,-136.23 76.8,-185.4 49.16,-49.17 115.86,-76.8 185.4,-76.8 z" />
            <path
               inkscape:connector-curvature="0"
               id="path5023"
               style="fill:#ff8c00;fill-opacity:1;fill-rule:nonzero;stroke:none;stroke-width:26.13665771;stroke-miterlimit:4;stroke-dasharray:none"
               d="m 3569.93,879.52 c 29.65,0 58.09,11.781 79.05,32.746 20.97,20.968 32.75,49.41 32.75,79.058 0,29.656 -11.78,58.086 -32.75,79.056 -20.96,20.97 -49.4,32.75 -79.05,32.75 -29.66,0 -58.09,-11.78 -79.06,-32.75 -20.97,-20.97 -32.75,-49.4 -32.75,-79.056 0,-29.648 11.78,-58.09 32.75,-79.058 20.97,-20.965 49.4,-32.746 79.06,-32.746" />
            <path
               inkscape:connector-curvature="0"
               id="path5025"
               style="fill:none;stroke:#000000;stroke-width:26.13665771;stroke-linecap:butt;stroke-linejoin:round;stroke-miterlimit:4;stroke-dasharray:none;stroke-opacity:1"
               d="m 3569.93,879.52 c 29.65,0 58.09,11.781 79.05,32.746 20.97,20.968 32.75,49.41 32.75,79.058 0,29.656 -11.78,58.086 -32.75,79.056 -20.96,20.97 -49.4,32.75 -79.05,32.75 -29.66,0 -58.09,-11.78 -79.06,-32.75 -20.97,-20.97 -32.75,-49.4 -32.75,-79.056 0,-29.648 11.78,-58.09 32.75,-79.058 20.97,-20.965 49.4,-32.746 79.06,-32.746 z" />
            <path
               inkscape:connector-curvature="0"
               id="path5027"
               style="fill:#ff8c00;fill-opacity:1;fill-rule:nonzero;stroke:none;stroke-width:26.13665771;stroke-miterlimit:4;stroke-dasharray:none"
               d="m 2367.6,398.59 c 29.65,0 58.09,11.781 79.06,32.746 20.97,20.969 32.74,49.406 32.74,79.059 0,29.648 -11.77,58.089 -32.74,79.054 -20.97,20.969 -49.41,32.75 -79.06,32.75 -29.65,0 -58.09,-11.781 -79.06,-32.75 -20.96,-20.965 -32.74,-49.406 -32.74,-79.054 0,-29.653 11.78,-58.09 32.74,-79.059 20.97,-20.965 49.41,-32.746 79.06,-32.746" />
            <path
               inkscape:connector-curvature="0"
               id="path5029"
               style="fill:none;stroke:#000000;stroke-width:26.13665771;stroke-linecap:butt;stroke-linejoin:round;stroke-miterlimit:4;stroke-dasharray:none;stroke-opacity:1"
               d="m 2367.6,398.59 c 29.65,0 58.09,11.781 79.06,32.746 20.97,20.969 32.74,49.406 32.74,79.059 0,29.648 -11.77,58.089 -32.74,79.054 -20.97,20.969 -49.41,32.75 -79.06,32.75 -29.65,0 -58.09,-11.781 -79.06,-32.75 -20.96,-20.965 -32.74,-49.406 -32.74,-79.054 0,-29.653 11.78,-58.09 32.74,-79.059 20.97,-20.965 49.41,-32.746 79.06,-32.746 z" />
            <path
               inkscape:connector-curvature="0"
               id="path5031"
               style="fill:#ff8c00;fill-opacity:1;fill-rule:nonzero;stroke:none;stroke-width:26.13665771;stroke-miterlimit:4;stroke-dasharray:none"
               d="m 1405.74,1119.98 c 29.65,0 58.09,11.79 79.06,32.75 20.96,20.97 32.74,49.41 32.74,79.06 0,29.65 -11.78,58.09 -32.74,79.06 -20.97,20.96 -49.41,32.74 -79.06,32.74 -29.65,0 -58.09,-11.78 -79.06,-32.74 -20.97,-20.97 -32.74,-49.41 -32.74,-79.06 0,-29.65 11.77,-58.09 32.74,-79.06 20.97,-20.96 49.41,-32.75 79.06,-32.75" />
            <path
               inkscape:connector-curvature="0"
               id="path5033"
               style="fill:none;stroke:#000000;stroke-width:26.13665771;stroke-linecap:butt;stroke-linejoin:round;stroke-miterlimit:4;stroke-dasharray:none;stroke-opacity:1"
               d="m 1405.74,1119.98 c 29.65,0 58.09,11.79 79.06,32.75 20.96,20.97 32.74,49.41 32.74,79.06 0,29.65 -11.78,58.09 -32.74,79.06 -20.97,20.96 -49.41,32.74 -79.06,32.74 -29.65,0 -58.09,-11.78 -79.06,-32.74 -20.97,-20.97 -32.74,-49.41 -32.74,-79.06 0,-29.65 11.77,-58.09 32.74,-79.06 20.97,-20.96 49.41,-32.75 79.06,-32.75 z" />
            <path
               inkscape:connector-curvature="0"
               id="path5035"
               style="fill:#9acd32;fill-opacity:1;fill-rule:nonzero;stroke:none;stroke-width:26.13665771;stroke-miterlimit:4;stroke-dasharray:none"
               d="m 2608.07,2171.91 c 69.53,0 136.23,27.63 185.4,76.8 49.17,49.17 76.8,115.87 76.8,185.41 0,69.53 -27.63,136.23 -76.8,185.4 -49.17,49.17 -115.87,76.8 -185.4,76.8 -69.54,0 -136.24,-27.63 -185.41,-76.8 -49.17,-49.17 -76.8,-115.87 -76.8,-185.4 0,-69.54 27.63,-136.24 76.8,-185.41 49.17,-49.17 115.87,-76.8 185.41,-76.8" />
            <path
               inkscape:connector-curvature="0"
               id="path5037"
               style="fill:none;stroke:#000000;stroke-width:26.13665771;stroke-linecap:butt;stroke-linejoin:round;stroke-miterlimit:4;stroke-dasharray:none;stroke-opacity:1"
               d="m 2608.07,2171.91 c 69.53,0 136.23,27.63 185.4,76.8 49.17,49.17 76.8,115.87 76.8,185.41 0,69.53 -27.63,136.23 -76.8,185.4 -49.17,49.17 -115.87,76.8 -185.4,76.8 -69.54,0 -136.24,-27.63 -185.41,-76.8 -49.17,-49.17 -76.8,-115.87 -76.8,-185.4 0,-69.54 27.63,-136.24 76.8,-185.41 49.17,-49.17 115.87,-76.8 185.41,-76.8 z" />
            <path
               inkscape:connector-curvature="0"
               id="path5039"
               style="fill:#9acd32;fill-opacity:1;fill-rule:nonzero;stroke:none;stroke-width:26.13665771;stroke-miterlimit:4;stroke-dasharray:none"
               d="m 3089,1690.98 c 69.53,0 136.23,27.63 185.4,76.8 49.17,49.17 76.8,115.87 76.8,185.4 0,69.54 -27.63,136.24 -76.8,185.41 -49.17,49.17 -115.87,76.8 -185.4,76.8 -69.54,0 -136.24,-27.63 -185.41,-76.8 -49.17,-49.17 -76.8,-115.87 -76.8,-185.41 0,-69.53 27.63,-136.23 76.8,-185.4 49.17,-49.17 115.87,-76.8 185.41,-76.8" />
            <path
               inkscape:connector-curvature="0"
               id="path5041"
               style="fill:none;stroke:#000000;stroke-width:26.13665771;stroke-linecap:butt;stroke-linejoin:round;stroke-miterlimit:4;stroke-dasharray:none;stroke-opacity:1"
               d="m 3089,1690.98 c 69.53,0 136.23,27.63 185.4,76.8 49.17,49.17 76.8,115.87 76.8,185.4 0,69.54 -27.63,136.24 -76.8,185.41 -49.17,49.17 -115.87,76.8 -185.4,76.8 -69.54,0 -136.24,-27.63 -185.41,-76.8 -49.17,-49.17 -76.8,-115.87 -76.8,-185.41 0,-69.53 27.63,-136.23 76.8,-185.4 49.17,-49.17 115.87,-76.8 185.41,-76.8 z" />
            <path
               inkscape:connector-curvature="0"
               id="path5043"
               style="fill:#ffff00;fill-opacity:1;fill-rule:nonzero;stroke:none;stroke-width:26.13665771;stroke-miterlimit:4;stroke-dasharray:none"
               d="m 1886.67,1931.45 c 69.54,0 136.24,27.62 185.4,76.8 49.18,49.16 76.8,115.86 76.8,185.4 0,69.54 -27.62,136.24 -76.8,185.4 -49.16,49.18 -115.86,76.8 -185.4,76.8 -69.54,0 -136.24,-27.62 -185.4,-76.8 -49.18,-49.16 -76.8,-115.86 -76.8,-185.4 0,-69.54 27.62,-136.24 76.8,-185.4 49.16,-49.18 115.86,-76.8 185.4,-76.8" />
            <path
               inkscape:connector-curvature="0"
               id="path5045"
               style="fill:none;stroke:#000000;stroke-width:26.13665771;stroke-linecap:butt;stroke-linejoin:round;stroke-miterlimit:4;stroke-dasharray:none;stroke-opacity:1"
               d="m 1886.67,1931.45 c 69.54,0 136.24,27.62 185.4,76.8 49.18,49.16 76.8,115.86 76.8,185.4 0,69.54 -27.62,136.24 -76.8,185.4 -49.16,49.18 -115.86,76.8 -185.4,76.8 -69.54,0 -136.24,-27.62 -185.4,-76.8 -49.18,-49.16 -76.8,-115.86 -76.8,-185.4 0,-69.54 27.62,-136.24 76.8,-185.4 49.16,-49.18 115.86,-76.8 185.4,-76.8 z" />
            <path
               inkscape:connector-curvature="0"
               id="path5047"
               style="fill:#ff8c00;fill-opacity:1;fill-rule:nonzero;stroke:none;stroke-width:26.13665771;stroke-miterlimit:4;stroke-dasharray:none"
               d="m 2848.53,2803.24 c 29.65,0 58.09,11.78 79.06,32.75 20.96,20.97 32.74,49.4 32.74,79.06 0,29.65 -11.78,58.09 -32.74,79.05 -20.97,20.97 -49.41,32.75 -79.06,32.75 -29.65,0 -58.09,-11.78 -79.06,-32.75 -20.96,-20.96 -32.74,-49.4 -32.74,-79.05 0,-29.66 11.78,-58.09 32.74,-79.06 20.97,-20.97 49.41,-32.75 79.06,-32.75" />
            <path
               inkscape:connector-curvature="0"
               id="path5049"
               style="fill:none;stroke:#000000;stroke-width:26.13665771;stroke-linecap:butt;stroke-linejoin:round;stroke-miterlimit:4;stroke-dasharray:none;stroke-opacity:1"
               d="m 2848.53,2803.24 c 29.65,0 58.09,11.78 79.06,32.75 20.96,20.97 32.74,49.4 32.74,79.06 0,29.65 -11.78,58.09 -32.74,79.05 -20.97,20.97 -49.41,32.75 -79.06,32.75 -29.65,0 -58.09,-11.78 -79.06,-32.75 -20.96,-20.96 -32.74,-49.4 -32.74,-79.05 0,-29.66 11.78,-58.09 32.74,-79.06 20.97,-20.97 49.41,-32.75 79.06,-32.75 z" />
            <path
               inkscape:connector-curvature="0"
               id="path5051"
               style="fill:#ff8c00;fill-opacity:1;fill-rule:nonzero;stroke:none;stroke-width:26.13665771;stroke-miterlimit:4;stroke-dasharray:none"
               d="m 3569.93,2081.85 c 29.65,0 58.09,11.78 79.05,32.74 20.97,20.97 32.75,49.41 32.75,79.06 0,29.65 -11.78,58.09 -32.75,79.06 -20.96,20.96 -49.4,32.74 -79.05,32.74 -29.66,0 -58.09,-11.78 -79.06,-32.74 -20.97,-20.97 -32.75,-49.41 -32.75,-79.06 0,-29.65 11.78,-58.09 32.75,-79.06 20.97,-20.96 49.4,-32.74 79.06,-32.74" />
            <path
               inkscape:connector-curvature="0"
               id="path5053"
               style="fill:none;stroke:#000000;stroke-width:26.13665771;stroke-linecap:butt;stroke-linejoin:round;stroke-miterlimit:4;stroke-dasharray:none;stroke-opacity:1"
               d="m 3569.93,2081.85 c 29.65,0 58.09,11.78 79.05,32.74 20.97,20.97 32.75,49.41 32.75,79.06 0,29.65 -11.78,58.09 -32.75,79.06 -20.96,20.96 -49.4,32.74 -79.05,32.74 -29.66,0 -58.09,-11.78 -79.06,-32.74 -20.97,-20.97 -32.75,-49.41 -32.75,-79.06 0,-29.65 11.78,-58.09 32.75,-79.06 20.97,-20.96 49.4,-32.74 79.06,-32.74 z" />
            <path
               inkscape:connector-curvature="0"
               id="path5055"
               style="fill:#ff4500;fill-opacity:1;fill-rule:nonzero;stroke:none;stroke-width:26.13665771;stroke-miterlimit:4;stroke-dasharray:none"
               d="m 1165.27,2562.78 c 29.66,0 58.09,11.78 79.06,32.74 20.97,20.97 32.75,49.41 32.75,79.06 0,29.65 -11.78,58.09 -32.75,79.06 -20.97,20.97 -49.4,32.74 -79.06,32.74 -29.64,0 -58.09,-11.77 -79.05,-32.74 -20.97,-20.97 -32.75,-49.41 -32.75,-79.06 0,-29.65 11.78,-58.09 32.75,-79.06 20.96,-20.96 49.41,-32.74 79.05,-32.74" />
            <path
               inkscape:connector-curvature="0"
               id="path5057"
               style="fill:none;stroke:#000000;stroke-width:26.13665771;stroke-linecap:butt;stroke-linejoin:round;stroke-miterlimit:4;stroke-dasharray:none;stroke-opacity:1"
               d="m 1165.27,2562.78 c 29.66,0 58.09,11.78 79.06,32.74 20.97,20.97 32.75,49.41 32.75,79.06 0,29.65 -11.78,58.09 -32.75,79.06 -20.97,20.97 -49.4,32.74 -79.06,32.74 -29.64,0 -58.09,-11.77 -79.05,-32.74 -20.97,-20.97 -32.75,-49.41 -32.75,-79.06 0,-29.65 11.78,-58.09 32.75,-79.06 20.96,-20.96 49.41,-32.74 79.05,-32.74 z" />
          </g>
        </g>
        <text
           xml:space="preserve"
           style="font-style:normal;font-variant:normal;font-weight:normal;font-stretch:normal;font-size:19.21416664px;line-height:1.25;font-family:'Latin Modern Math';-inkscape-font-specification:'Latin Modern Math';letter-spacing:0px;word-spacing:0px;fill:#000000;fill-opacity:1;stroke:none;stroke-width:0.45033199"
           x="10.055031"
           y="360.88403"
           id="text7954"><tspan
             sodipodi:role="line"
             id="tspan7952"
             x="10.055031"
             y="360.88403"
             style="stroke-width:0.45033199">1</tspan></text>
      </g>
      <g
         transform="translate(-37.128672)"
         id="g9028">
        <rect
           style="fill:none;fill-opacity:1;stroke:#808080;stroke-width:3.40408444;stroke-linejoin:round;stroke-miterlimit:4;stroke-dasharray:none;stroke-dashoffset:10;stroke-opacity:0.99215686"
           id="rect7637-2"
           width="180.36943"
           height="180.36943"
           x="235.0293"
           y="191.65965" />
        <g
           id="g5805"
           transform="matrix(0.05739066,0,0,-0.05739066,189.33588,380.13849)"
           style="stroke-width:26.13665771;stroke-miterlimit:4;stroke-dasharray:none">
          <g
             clip-path="url(#clipPath5811)"
             id="g5807"
             style="stroke-width:26.13665771;stroke-miterlimit:4;stroke-dasharray:none">
            <path
               inkscape:connector-curvature="0"
               id="path5813"
               style="fill:#9acd32;fill-opacity:1;fill-rule:nonzero;stroke:none;stroke-width:26.13665771;stroke-miterlimit:4;stroke-dasharray:none"
               d="m 2968.76,969.586 c 69.54,0 136.24,27.629 185.41,76.794 49.17,49.17 76.79,115.87 76.79,185.41 0,69.54 -27.62,136.23 -76.79,185.41 -49.17,49.16 -115.87,76.79 -185.41,76.79 -69.53,0 -136.23,-27.63 -185.4,-76.79 -49.17,-49.18 -76.8,-115.87 -76.8,-185.41 0,-69.54 27.63,-136.24 76.8,-185.41 49.17,-49.165 115.87,-76.794 185.4,-76.794" />
            <path
               inkscape:connector-curvature="0"
               id="path5815"
               style="fill:none;stroke:#000000;stroke-width:26.13665771;stroke-linecap:butt;stroke-linejoin:round;stroke-miterlimit:4;stroke-dasharray:none;stroke-opacity:1"
               d="m 2968.76,969.586 c 69.54,0 136.24,27.629 185.41,76.794 49.17,49.17 76.79,115.87 76.79,185.41 0,69.54 -27.62,136.23 -76.79,185.41 -49.17,49.16 -115.87,76.79 -185.41,76.79 -69.53,0 -136.23,-27.63 -185.4,-76.79 -49.17,-49.18 -76.8,-115.87 -76.8,-185.41 0,-69.54 27.63,-136.24 76.8,-185.41 49.17,-49.165 115.87,-76.794 185.4,-76.794 z" />
            <path
               inkscape:connector-curvature="0"
               id="path5817"
               style="fill:#9acd32;fill-opacity:1;fill-rule:nonzero;stroke:none;stroke-width:26.13665771;stroke-miterlimit:4;stroke-dasharray:none"
               d="m 2247.37,729.121 c 69.54,0 136.23,27.629 185.4,76.797 49.17,49.172 76.8,115.871 76.8,185.406 0,69.536 -27.63,136.236 -76.8,185.406 -49.17,49.17 -115.86,76.8 -185.4,76.8 -69.54,0 -136.24,-27.63 -185.41,-76.8 -49.17,-49.17 -76.8,-115.87 -76.8,-185.406 0,-69.535 27.63,-136.234 76.8,-185.406 49.17,-49.168 115.87,-76.797 185.41,-76.797" />
            <path
               inkscape:connector-curvature="0"
               id="path5819"
               style="fill:none;stroke:#000000;stroke-width:26.13665771;stroke-linecap:butt;stroke-linejoin:round;stroke-miterlimit:4;stroke-dasharray:none;stroke-opacity:1"
               d="m 2247.37,729.121 c 69.54,0 136.23,27.629 185.4,76.797 49.17,49.172 76.8,115.871 76.8,185.406 0,69.536 -27.63,136.236 -76.8,185.406 -49.17,49.17 -115.86,76.8 -185.4,76.8 -69.54,0 -136.24,-27.63 -185.41,-76.8 -49.17,-49.17 -76.8,-115.87 -76.8,-185.406 0,-69.535 27.63,-136.234 76.8,-185.406 49.17,-49.168 115.87,-76.797 185.41,-76.797 z" />
            <path
               inkscape:connector-curvature="0"
               id="path5821"
               style="fill:#9acd32;fill-opacity:1;fill-rule:nonzero;stroke:none;stroke-width:26.13665771;stroke-miterlimit:4;stroke-dasharray:none"
               d="m 1766.44,1210.05 c 69.53,0 136.23,27.63 185.4,76.8 49.17,49.17 76.8,115.87 76.8,185.4 0,69.54 -27.63,136.24 -76.8,185.41 -49.17,49.17 -115.87,76.8 -185.4,76.8 -69.54,0 -136.24,-27.63 -185.41,-76.8 -49.17,-49.17 -76.8,-115.87 -76.8,-185.41 0,-69.53 27.63,-136.23 76.8,-185.4 49.17,-49.17 115.87,-76.8 185.41,-76.8" />
            <path
               inkscape:connector-curvature="0"
               id="path5823"
               style="fill:none;stroke:#000000;stroke-width:26.13665771;stroke-linecap:butt;stroke-linejoin:round;stroke-miterlimit:4;stroke-dasharray:none;stroke-opacity:1"
               d="m 1766.44,1210.05 c 69.53,0 136.23,27.63 185.4,76.8 49.17,49.17 76.8,115.87 76.8,185.4 0,69.54 -27.63,136.24 -76.8,185.41 -49.17,49.17 -115.87,76.8 -185.4,76.8 -69.54,0 -136.24,-27.63 -185.41,-76.8 -49.17,-49.17 -76.8,-115.87 -76.8,-185.41 0,-69.53 27.63,-136.23 76.8,-185.4 49.17,-49.17 115.87,-76.8 185.41,-76.8 z" />
            <path
               inkscape:connector-curvature="0"
               id="path5825"
               style="fill:#ff8c00;fill-opacity:1;fill-rule:nonzero;stroke:none;stroke-width:26.13665771;stroke-miterlimit:4;stroke-dasharray:none"
               d="m 3449.7,879.52 c 29.64,0 58.09,11.781 79.05,32.746 20.96,20.968 32.75,49.41 32.75,79.058 0,29.656 -11.79,58.086 -32.75,79.056 -20.96,20.97 -49.41,32.75 -79.05,32.75 -29.66,0 -58.1,-11.78 -79.06,-32.75 -20.97,-20.97 -32.75,-49.4 -32.75,-79.056 0,-29.648 11.78,-58.09 32.75,-79.058 20.96,-20.965 49.4,-32.746 79.06,-32.746" />
            <path
               inkscape:connector-curvature="0"
               id="path5827"
               style="fill:none;stroke:#000000;stroke-width:26.13665771;stroke-linecap:butt;stroke-linejoin:round;stroke-miterlimit:4;stroke-dasharray:none;stroke-opacity:1"
               d="m 3449.7,879.52 c 29.64,0 58.09,11.781 79.05,32.746 20.96,20.968 32.75,49.41 32.75,79.058 0,29.656 -11.79,58.086 -32.75,79.056 -20.96,20.97 -49.41,32.75 -79.05,32.75 -29.66,0 -58.1,-11.78 -79.06,-32.75 -20.97,-20.97 -32.75,-49.4 -32.75,-79.056 0,-29.648 11.78,-58.09 32.75,-79.058 20.96,-20.965 49.4,-32.746 79.06,-32.746 z" />
            <path
               inkscape:connector-curvature="0"
               id="path5829"
               style="fill:#ff8c00;fill-opacity:1;fill-rule:nonzero;stroke:none;stroke-width:26.13665771;stroke-miterlimit:4;stroke-dasharray:none"
               d="m 2247.37,398.59 c 29.65,0 58.09,11.781 79.06,32.746 20.96,20.969 32.74,49.406 32.74,79.059 0,29.648 -11.78,58.089 -32.74,79.054 -20.97,20.969 -49.41,32.75 -79.06,32.75 -29.65,0 -58.09,-11.781 -79.06,-32.75 -20.97,-20.965 -32.75,-49.406 -32.75,-79.054 0,-29.653 11.78,-58.09 32.75,-79.059 20.97,-20.965 49.41,-32.746 79.06,-32.746" />
            <path
               inkscape:connector-curvature="0"
               id="path5831"
               style="fill:none;stroke:#000000;stroke-width:26.13665771;stroke-linecap:butt;stroke-linejoin:round;stroke-miterlimit:4;stroke-dasharray:none;stroke-opacity:1"
               d="m 2247.37,398.59 c 29.65,0 58.09,11.781 79.06,32.746 20.96,20.969 32.74,49.406 32.74,79.059 0,29.648 -11.78,58.089 -32.74,79.054 -20.97,20.969 -49.41,32.75 -79.06,32.75 -29.65,0 -58.09,-11.781 -79.06,-32.75 -20.97,-20.965 -32.75,-49.406 -32.75,-79.054 0,-29.653 11.78,-58.09 32.75,-79.059 20.97,-20.965 49.41,-32.746 79.06,-32.746 z" />
            <path
               inkscape:connector-curvature="0"
               id="path5833"
               style="fill:#ff8c00;fill-opacity:1;fill-rule:nonzero;stroke:none;stroke-width:26.13665771;stroke-miterlimit:4;stroke-dasharray:none"
               d="m 1285.51,1119.98 c 29.65,0 58.09,11.79 79.05,32.75 20.97,20.97 32.75,49.41 32.75,79.06 0,29.65 -11.78,58.09 -32.75,79.06 -20.96,20.96 -49.4,32.74 -79.05,32.74 -29.65,0 -58.1,-11.78 -79.06,-32.74 -20.97,-20.97 -32.75,-49.41 -32.75,-79.06 0,-29.65 11.78,-58.09 32.75,-79.06 20.96,-20.96 49.41,-32.75 79.06,-32.75" />
            <path
               inkscape:connector-curvature="0"
               id="path5835"
               style="fill:none;stroke:#000000;stroke-width:26.13665771;stroke-linecap:butt;stroke-linejoin:round;stroke-miterlimit:4;stroke-dasharray:none;stroke-opacity:1"
               d="m 1285.51,1119.98 c 29.65,0 58.09,11.79 79.05,32.75 20.97,20.97 32.75,49.41 32.75,79.06 0,29.65 -11.78,58.09 -32.75,79.06 -20.96,20.96 -49.4,32.74 -79.05,32.74 -29.65,0 -58.1,-11.78 -79.06,-32.74 -20.97,-20.97 -32.75,-49.41 -32.75,-79.06 0,-29.65 11.78,-58.09 32.75,-79.06 20.96,-20.96 49.41,-32.75 79.06,-32.75 z" />
            <path
               inkscape:connector-curvature="0"
               id="path5837"
               style="fill:#9acd32;fill-opacity:1;fill-rule:nonzero;stroke:none;stroke-width:26.13665771;stroke-miterlimit:4;stroke-dasharray:none"
               d="m 2487.83,2171.91 c 69.54,0 136.24,27.63 185.41,76.8 49.17,49.17 76.8,115.87 76.8,185.41 0,69.53 -27.63,136.23 -76.8,185.4 -49.17,49.17 -115.87,76.8 -185.41,76.8 -69.53,0 -136.23,-27.63 -185.4,-76.8 -49.17,-49.17 -76.8,-115.87 -76.8,-185.4 0,-69.54 27.63,-136.24 76.8,-185.41 49.17,-49.17 115.87,-76.8 185.4,-76.8" />
            <path
               inkscape:connector-curvature="0"
               id="path5839"
               style="fill:none;stroke:#000000;stroke-width:26.13665771;stroke-linecap:butt;stroke-linejoin:round;stroke-miterlimit:4;stroke-dasharray:none;stroke-opacity:1"
               d="m 2487.83,2171.91 c 69.54,0 136.24,27.63 185.41,76.8 49.17,49.17 76.8,115.87 76.8,185.41 0,69.53 -27.63,136.23 -76.8,185.4 -49.17,49.17 -115.87,76.8 -185.41,76.8 -69.53,0 -136.23,-27.63 -185.4,-76.8 -49.17,-49.17 -76.8,-115.87 -76.8,-185.4 0,-69.54 27.63,-136.24 76.8,-185.41 49.17,-49.17 115.87,-76.8 185.4,-76.8 z" />
            <path
               inkscape:connector-curvature="0"
               id="path5841"
               style="fill:#9acd32;fill-opacity:1;fill-rule:nonzero;stroke:none;stroke-width:26.13665771;stroke-miterlimit:4;stroke-dasharray:none"
               d="m 2968.76,1690.98 c 69.54,0 136.24,27.63 185.41,76.8 49.17,49.17 76.79,115.87 76.79,185.4 0,69.54 -27.62,136.24 -76.79,185.41 -49.17,49.17 -115.87,76.8 -185.41,76.8 -69.53,0 -136.23,-27.63 -185.4,-76.8 -49.17,-49.17 -76.8,-115.87 -76.8,-185.41 0,-69.53 27.63,-136.23 76.8,-185.4 49.17,-49.17 115.87,-76.8 185.4,-76.8" />
            <path
               inkscape:connector-curvature="0"
               id="path5843"
               style="fill:none;stroke:#000000;stroke-width:26.13665771;stroke-linecap:butt;stroke-linejoin:round;stroke-miterlimit:4;stroke-dasharray:none;stroke-opacity:1"
               d="m 2968.76,1690.98 c 69.54,0 136.24,27.63 185.41,76.8 49.17,49.17 76.79,115.87 76.79,185.4 0,69.54 -27.62,136.24 -76.79,185.41 -49.17,49.17 -115.87,76.8 -185.41,76.8 -69.53,0 -136.23,-27.63 -185.4,-76.8 -49.17,-49.17 -76.8,-115.87 -76.8,-185.41 0,-69.53 27.63,-136.23 76.8,-185.4 49.17,-49.17 115.87,-76.8 185.4,-76.8 z" />
            <path
               inkscape:connector-curvature="0"
               id="path5845"
               style="fill:#9acd32;fill-opacity:1;fill-rule:nonzero;stroke:none;stroke-width:26.13665771;stroke-miterlimit:4;stroke-dasharray:none"
               d="m 1766.44,1931.45 c 69.53,0 136.23,27.62 185.4,76.8 49.17,49.16 76.8,115.86 76.8,185.4 0,69.54 -27.63,136.24 -76.8,185.4 -49.17,49.18 -115.87,76.8 -185.4,76.8 -69.54,0 -136.24,-27.62 -185.41,-76.8 -49.17,-49.16 -76.8,-115.86 -76.8,-185.4 0,-69.54 27.63,-136.24 76.8,-185.4 49.17,-49.18 115.87,-76.8 185.41,-76.8" />
            <path
               inkscape:connector-curvature="0"
               id="path5847"
               style="fill:none;stroke:#000000;stroke-width:26.13665771;stroke-linecap:butt;stroke-linejoin:round;stroke-miterlimit:4;stroke-dasharray:none;stroke-opacity:1"
               d="m 1766.44,1931.45 c 69.53,0 136.23,27.62 185.4,76.8 49.17,49.16 76.8,115.86 76.8,185.4 0,69.54 -27.63,136.24 -76.8,185.4 -49.17,49.18 -115.87,76.8 -185.4,76.8 -69.54,0 -136.24,-27.62 -185.41,-76.8 -49.17,-49.16 -76.8,-115.86 -76.8,-185.4 0,-69.54 27.63,-136.24 76.8,-185.4 49.17,-49.18 115.87,-76.8 185.41,-76.8 z" />
            <path
               inkscape:connector-curvature="0"
               id="path5849"
               style="fill:#ff8c00;fill-opacity:1;fill-rule:nonzero;stroke:none;stroke-width:26.13665771;stroke-miterlimit:4;stroke-dasharray:none"
               d="m 2728.3,2803.24 c 29.65,0 58.09,11.78 79.06,32.75 20.96,20.97 32.74,49.4 32.74,79.06 0,29.65 -11.78,58.09 -32.74,79.05 -20.97,20.97 -49.41,32.75 -79.06,32.75 -29.65,0 -58.09,-11.78 -79.06,-32.75 -20.97,-20.96 -32.74,-49.4 -32.74,-79.05 0,-29.66 11.77,-58.09 32.74,-79.06 20.97,-20.97 49.41,-32.75 79.06,-32.75" />
            <path
               inkscape:connector-curvature="0"
               id="path5851"
               style="fill:none;stroke:#000000;stroke-width:26.13665771;stroke-linecap:butt;stroke-linejoin:round;stroke-miterlimit:4;stroke-dasharray:none;stroke-opacity:1"
               d="m 2728.3,2803.24 c 29.65,0 58.09,11.78 79.06,32.75 20.96,20.97 32.74,49.4 32.74,79.06 0,29.65 -11.78,58.09 -32.74,79.05 -20.97,20.97 -49.41,32.75 -79.06,32.75 -29.65,0 -58.09,-11.78 -79.06,-32.75 -20.97,-20.96 -32.74,-49.4 -32.74,-79.05 0,-29.66 11.77,-58.09 32.74,-79.06 20.97,-20.97 49.41,-32.75 79.06,-32.75 z" />
            <path
               inkscape:connector-curvature="0"
               id="path5853"
               style="fill:#ff8c00;fill-opacity:1;fill-rule:nonzero;stroke:none;stroke-width:26.13665771;stroke-miterlimit:4;stroke-dasharray:none"
               d="m 3449.7,2081.85 c 29.64,0 58.09,11.78 79.05,32.74 20.96,20.97 32.75,49.41 32.75,79.06 0,29.65 -11.79,58.09 -32.75,79.06 -20.96,20.96 -49.41,32.74 -79.05,32.74 -29.66,0 -58.1,-11.78 -79.06,-32.74 -20.97,-20.97 -32.75,-49.41 -32.75,-79.06 0,-29.65 11.78,-58.09 32.75,-79.06 20.96,-20.96 49.4,-32.74 79.06,-32.74" />
            <path
               inkscape:connector-curvature="0"
               id="path5855"
               style="fill:none;stroke:#000000;stroke-width:26.13665771;stroke-linecap:butt;stroke-linejoin:round;stroke-miterlimit:4;stroke-dasharray:none;stroke-opacity:1"
               d="m 3449.7,2081.85 c 29.64,0 58.09,11.78 79.05,32.74 20.96,20.97 32.75,49.41 32.75,79.06 0,29.65 -11.79,58.09 -32.75,79.06 -20.96,20.96 -49.41,32.74 -79.05,32.74 -29.66,0 -58.1,-11.78 -79.06,-32.74 -20.97,-20.97 -32.75,-49.41 -32.75,-79.06 0,-29.65 11.78,-58.09 32.75,-79.06 20.96,-20.96 49.4,-32.74 79.06,-32.74 z" />
            <path
               inkscape:connector-curvature="0"
               id="path5857"
               style="fill:#ff8c00;fill-opacity:1;fill-rule:nonzero;stroke:none;stroke-width:26.13665771;stroke-miterlimit:4;stroke-dasharray:none"
               d="m 1285.51,2562.78 c 29.65,0 58.09,11.78 79.05,32.74 20.97,20.97 32.75,49.41 32.75,79.06 0,29.65 -11.78,58.09 -32.75,79.06 -20.96,20.97 -49.4,32.74 -79.05,32.74 -29.65,0 -58.1,-11.77 -79.06,-32.74 -20.97,-20.97 -32.75,-49.41 -32.75,-79.06 0,-29.65 11.78,-58.09 32.75,-79.06 20.96,-20.96 49.41,-32.74 79.06,-32.74" />
            <path
               inkscape:connector-curvature="0"
               id="path5859"
               style="fill:none;stroke:#000000;stroke-width:26.13665771;stroke-linecap:butt;stroke-linejoin:round;stroke-miterlimit:4;stroke-dasharray:none;stroke-opacity:1"
               d="m 1285.51,2562.78 c 29.65,0 58.09,11.78 79.05,32.74 20.97,20.97 32.75,49.41 32.75,79.06 0,29.65 -11.78,58.09 -32.75,79.06 -20.96,20.97 -49.4,32.74 -79.05,32.74 -29.65,0 -58.1,-11.77 -79.06,-32.74 -20.97,-20.97 -32.75,-49.41 -32.75,-79.06 0,-29.65 11.78,-58.09 32.75,-79.06 20.96,-20.96 49.41,-32.74 79.06,-32.74 z" />
          </g>
        </g>
        <text
           xml:space="preserve"
           style="font-style:normal;font-variant:normal;font-weight:normal;font-stretch:normal;font-size:19.21416664px;line-height:1.25;font-family:'Latin Modern Math';-inkscape-font-specification:'Latin Modern Math';letter-spacing:0px;word-spacing:0px;fill:#000000;fill-opacity:1;stroke:none;stroke-width:0.45033199"
           x="243.49884"
           y="361.71582"
           id="text7958"><tspan
             sodipodi:role="line"
             id="tspan7956"
             x="243.49884"
             y="361.71582"
             style="stroke-width:0.45033199">2</tspan></text>
      </g>
      <g
         transform="translate(-71.809631)"
         id="g9059">
        <rect
           style="fill:none;fill-opacity:1;stroke:#808080;stroke-width:3.40408444;stroke-linejoin:round;stroke-miterlimit:4;stroke-dasharray:none;stroke-dashoffset:10;stroke-opacity:0.99215686"
           id="rect7637-6"
           width="180.36943"
           height="180.36943"
           x="465.90887"
           y="190.72969" />
        <g
           id="g6561"
           transform="matrix(0.05739066,0,0,-0.05739066,420.21547,379.20854)"
           style="stroke-width:26.13665771;stroke-miterlimit:4;stroke-dasharray:none">
          <g
             clip-path="url(#clipPath6567)"
             id="g6563"
             style="stroke-width:26.13665771;stroke-miterlimit:4;stroke-dasharray:none">
            <path
               inkscape:connector-curvature="0"
               id="path6569"
               style="fill:#9acd32;fill-opacity:1;fill-rule:nonzero;stroke:none;stroke-width:26.13665771;stroke-miterlimit:4;stroke-dasharray:none"
               d="m 2968.76,969.586 c 69.54,0 136.24,27.629 185.41,76.794 49.17,49.17 76.79,115.87 76.79,185.41 0,69.54 -27.62,136.23 -76.79,185.41 -49.17,49.16 -115.87,76.79 -185.41,76.79 -69.53,0 -136.23,-27.63 -185.4,-76.79 -49.17,-49.18 -76.8,-115.87 -76.8,-185.41 0,-69.54 27.63,-136.24 76.8,-185.41 49.17,-49.165 115.87,-76.794 185.4,-76.794" />
            <path
               inkscape:connector-curvature="0"
               id="path6571"
               style="fill:none;stroke:#000000;stroke-width:26.13665771;stroke-linecap:butt;stroke-linejoin:round;stroke-miterlimit:4;stroke-dasharray:none;stroke-opacity:1"
               d="m 2968.76,969.586 c 69.54,0 136.24,27.629 185.41,76.794 49.17,49.17 76.79,115.87 76.79,185.41 0,69.54 -27.62,136.23 -76.79,185.41 -49.17,49.16 -115.87,76.79 -185.41,76.79 -69.53,0 -136.23,-27.63 -185.4,-76.79 -49.17,-49.18 -76.8,-115.87 -76.8,-185.41 0,-69.54 27.63,-136.24 76.8,-185.41 49.17,-49.165 115.87,-76.794 185.4,-76.794 z" />
            <path
               inkscape:connector-curvature="0"
               id="path6573"
               style="fill:#9acd32;fill-opacity:1;fill-rule:nonzero;stroke:none;stroke-width:26.13665771;stroke-miterlimit:4;stroke-dasharray:none"
               d="m 2247.37,729.121 c 69.54,0 136.23,27.629 185.4,76.797 49.17,49.172 76.8,115.871 76.8,185.406 0,69.536 -27.63,136.236 -76.8,185.406 -49.17,49.17 -115.86,76.8 -185.4,76.8 -69.54,0 -136.24,-27.63 -185.41,-76.8 -49.17,-49.17 -76.8,-115.87 -76.8,-185.406 0,-69.535 27.63,-136.234 76.8,-185.406 49.17,-49.168 115.87,-76.797 185.41,-76.797" />
            <path
               inkscape:connector-curvature="0"
               id="path6575"
               style="fill:none;stroke:#000000;stroke-width:26.13665771;stroke-linecap:butt;stroke-linejoin:round;stroke-miterlimit:4;stroke-dasharray:none;stroke-opacity:1"
               d="m 2247.37,729.121 c 69.54,0 136.23,27.629 185.4,76.797 49.17,49.172 76.8,115.871 76.8,185.406 0,69.536 -27.63,136.236 -76.8,185.406 -49.17,49.17 -115.86,76.8 -185.4,76.8 -69.54,0 -136.24,-27.63 -185.41,-76.8 -49.17,-49.17 -76.8,-115.87 -76.8,-185.406 0,-69.535 27.63,-136.234 76.8,-185.406 49.17,-49.168 115.87,-76.797 185.41,-76.797 z" />
            <path
               inkscape:connector-curvature="0"
               id="path6577"
               style="fill:#9acd32;fill-opacity:1;fill-rule:nonzero;stroke:none;stroke-width:26.13665771;stroke-miterlimit:4;stroke-dasharray:none"
               d="m 1766.44,1210.05 c 69.53,0 136.23,27.63 185.4,76.8 49.17,49.17 76.8,115.87 76.8,185.4 0,69.54 -27.63,136.24 -76.8,185.41 -49.17,49.17 -115.87,76.8 -185.4,76.8 -69.54,0 -136.24,-27.63 -185.41,-76.8 -49.17,-49.17 -76.8,-115.87 -76.8,-185.41 0,-69.53 27.63,-136.23 76.8,-185.4 49.17,-49.17 115.87,-76.8 185.41,-76.8" />
            <path
               inkscape:connector-curvature="0"
               id="path6579"
               style="fill:none;stroke:#000000;stroke-width:26.13665771;stroke-linecap:butt;stroke-linejoin:round;stroke-miterlimit:4;stroke-dasharray:none;stroke-opacity:1"
               d="m 1766.44,1210.05 c 69.53,0 136.23,27.63 185.4,76.8 49.17,49.17 76.8,115.87 76.8,185.4 0,69.54 -27.63,136.24 -76.8,185.41 -49.17,49.17 -115.87,76.8 -185.4,76.8 -69.54,0 -136.24,-27.63 -185.41,-76.8 -49.17,-49.17 -76.8,-115.87 -76.8,-185.41 0,-69.53 27.63,-136.23 76.8,-185.4 49.17,-49.17 115.87,-76.8 185.41,-76.8 z" />
            <path
               inkscape:connector-curvature="0"
               id="path6581"
               style="fill:#ff8c00;fill-opacity:1;fill-rule:nonzero;stroke:none;stroke-width:26.13665771;stroke-miterlimit:4;stroke-dasharray:none"
               d="m 3449.7,879.52 c 29.64,0 58.09,11.781 79.05,32.746 20.96,20.968 32.75,49.41 32.75,79.058 0,29.656 -11.79,58.086 -32.75,79.056 -20.96,20.97 -49.41,32.75 -79.05,32.75 -29.66,0 -58.1,-11.78 -79.06,-32.75 -20.97,-20.97 -32.75,-49.4 -32.75,-79.056 0,-29.648 11.78,-58.09 32.75,-79.058 20.96,-20.965 49.4,-32.746 79.06,-32.746" />
            <path
               inkscape:connector-curvature="0"
               id="path6583"
               style="fill:none;stroke:#000000;stroke-width:26.13665771;stroke-linecap:butt;stroke-linejoin:round;stroke-miterlimit:4;stroke-dasharray:none;stroke-opacity:1"
               d="m 3449.7,879.52 c 29.64,0 58.09,11.781 79.05,32.746 20.96,20.968 32.75,49.41 32.75,79.058 0,29.656 -11.79,58.086 -32.75,79.056 -20.96,20.97 -49.41,32.75 -79.05,32.75 -29.66,0 -58.1,-11.78 -79.06,-32.75 -20.97,-20.97 -32.75,-49.4 -32.75,-79.056 0,-29.648 11.78,-58.09 32.75,-79.058 20.96,-20.965 49.4,-32.746 79.06,-32.746 z" />
            <path
               inkscape:connector-curvature="0"
               id="path6585"
               style="fill:#ff8c00;fill-opacity:1;fill-rule:nonzero;stroke:none;stroke-width:26.13665771;stroke-miterlimit:4;stroke-dasharray:none"
               d="m 2247.37,398.59 c 29.65,0 58.09,11.781 79.06,32.746 20.96,20.969 32.74,49.406 32.74,79.059 0,29.648 -11.78,58.089 -32.74,79.054 -20.97,20.969 -49.41,32.75 -79.06,32.75 -29.65,0 -58.09,-11.781 -79.06,-32.75 -20.97,-20.965 -32.75,-49.406 -32.75,-79.054 0,-29.653 11.78,-58.09 32.75,-79.059 20.97,-20.965 49.41,-32.746 79.06,-32.746" />
            <path
               inkscape:connector-curvature="0"
               id="path6587"
               style="fill:none;stroke:#000000;stroke-width:26.13665771;stroke-linecap:butt;stroke-linejoin:round;stroke-miterlimit:4;stroke-dasharray:none;stroke-opacity:1"
               d="m 2247.37,398.59 c 29.65,0 58.09,11.781 79.06,32.746 20.96,20.969 32.74,49.406 32.74,79.059 0,29.648 -11.78,58.089 -32.74,79.054 -20.97,20.969 -49.41,32.75 -79.06,32.75 -29.65,0 -58.09,-11.781 -79.06,-32.75 -20.97,-20.965 -32.75,-49.406 -32.75,-79.054 0,-29.653 11.78,-58.09 32.75,-79.059 20.97,-20.965 49.41,-32.746 79.06,-32.746 z" />
            <path
               inkscape:connector-curvature="0"
               id="path6589"
               style="fill:#ff8c00;fill-opacity:1;fill-rule:nonzero;stroke:none;stroke-width:26.13665771;stroke-miterlimit:4;stroke-dasharray:none"
               d="m 1285.51,1119.98 c 29.65,0 58.09,11.79 79.05,32.75 20.97,20.97 32.75,49.41 32.75,79.06 0,29.65 -11.78,58.09 -32.75,79.06 -20.96,20.96 -49.4,32.74 -79.05,32.74 -29.65,0 -58.1,-11.78 -79.06,-32.74 -20.97,-20.97 -32.75,-49.41 -32.75,-79.06 0,-29.65 11.78,-58.09 32.75,-79.06 20.96,-20.96 49.41,-32.75 79.06,-32.75" />
            <path
               inkscape:connector-curvature="0"
               id="path6591"
               style="fill:none;stroke:#000000;stroke-width:26.13665771;stroke-linecap:butt;stroke-linejoin:round;stroke-miterlimit:4;stroke-dasharray:none;stroke-opacity:1"
               d="m 1285.51,1119.98 c 29.65,0 58.09,11.79 79.05,32.75 20.97,20.97 32.75,49.41 32.75,79.06 0,29.65 -11.78,58.09 -32.75,79.06 -20.96,20.96 -49.4,32.74 -79.05,32.74 -29.65,0 -58.1,-11.78 -79.06,-32.74 -20.97,-20.97 -32.75,-49.41 -32.75,-79.06 0,-29.65 11.78,-58.09 32.75,-79.06 20.96,-20.96 49.41,-32.75 79.06,-32.75 z" />
            <path
               inkscape:connector-curvature="0"
               id="path6593"
               style="fill:#32cd32;fill-opacity:1;fill-rule:nonzero;stroke:none;stroke-width:26.13665771;stroke-miterlimit:4;stroke-dasharray:none"
               d="m 2487.83,2171.91 c 69.54,0 136.24,27.63 185.41,76.8 49.17,49.17 76.8,115.87 76.8,185.41 0,69.53 -27.63,136.23 -76.8,185.4 -49.17,49.17 -115.87,76.8 -185.41,76.8 -69.53,0 -136.23,-27.63 -185.4,-76.8 -49.17,-49.17 -76.8,-115.87 -76.8,-185.4 0,-69.54 27.63,-136.24 76.8,-185.41 49.17,-49.17 115.87,-76.8 185.4,-76.8" />
            <path
               inkscape:connector-curvature="0"
               id="path6595"
               style="fill:none;stroke:#000000;stroke-width:26.13665771;stroke-linecap:butt;stroke-linejoin:round;stroke-miterlimit:4;stroke-dasharray:none;stroke-opacity:1"
               d="m 2487.83,2171.91 c 69.54,0 136.24,27.63 185.41,76.8 49.17,49.17 76.8,115.87 76.8,185.41 0,69.53 -27.63,136.23 -76.8,185.4 -49.17,49.17 -115.87,76.8 -185.41,76.8 -69.53,0 -136.23,-27.63 -185.4,-76.8 -49.17,-49.17 -76.8,-115.87 -76.8,-185.4 0,-69.54 27.63,-136.24 76.8,-185.41 49.17,-49.17 115.87,-76.8 185.4,-76.8 z" />
            <path
               inkscape:connector-curvature="0"
               id="path6597"
               style="fill:#9acd32;fill-opacity:1;fill-rule:nonzero;stroke:none;stroke-width:26.13665771;stroke-miterlimit:4;stroke-dasharray:none"
               d="m 2968.76,1690.98 c 69.54,0 136.24,27.63 185.41,76.8 49.17,49.17 76.79,115.87 76.79,185.4 0,69.54 -27.62,136.24 -76.79,185.41 -49.17,49.17 -115.87,76.8 -185.41,76.8 -69.53,0 -136.23,-27.63 -185.4,-76.8 -49.17,-49.17 -76.8,-115.87 -76.8,-185.41 0,-69.53 27.63,-136.23 76.8,-185.4 49.17,-49.17 115.87,-76.8 185.4,-76.8" />
            <path
               inkscape:connector-curvature="0"
               id="path6599"
               style="fill:none;stroke:#000000;stroke-width:26.13665771;stroke-linecap:butt;stroke-linejoin:round;stroke-miterlimit:4;stroke-dasharray:none;stroke-opacity:1"
               d="m 2968.76,1690.98 c 69.54,0 136.24,27.63 185.41,76.8 49.17,49.17 76.79,115.87 76.79,185.4 0,69.54 -27.62,136.24 -76.79,185.41 -49.17,49.17 -115.87,76.8 -185.41,76.8 -69.53,0 -136.23,-27.63 -185.4,-76.8 -49.17,-49.17 -76.8,-115.87 -76.8,-185.41 0,-69.53 27.63,-136.23 76.8,-185.4 49.17,-49.17 115.87,-76.8 185.4,-76.8 z" />
            <path
               inkscape:connector-curvature="0"
               id="path6601"
               style="fill:#ffff00;fill-opacity:1;fill-rule:nonzero;stroke:none;stroke-width:26.13665771;stroke-miterlimit:4;stroke-dasharray:none"
               d="m 1766.44,1931.45 c 69.53,0 136.23,27.62 185.4,76.8 49.17,49.16 76.8,115.86 76.8,185.4 0,69.54 -27.63,136.24 -76.8,185.4 -49.17,49.18 -115.87,76.8 -185.4,76.8 -69.54,0 -136.24,-27.62 -185.41,-76.8 -49.17,-49.16 -76.8,-115.86 -76.8,-185.4 0,-69.54 27.63,-136.24 76.8,-185.4 49.17,-49.18 115.87,-76.8 185.41,-76.8" />
            <path
               inkscape:connector-curvature="0"
               id="path6603"
               style="fill:none;stroke:#000000;stroke-width:26.13665771;stroke-linecap:butt;stroke-linejoin:round;stroke-miterlimit:4;stroke-dasharray:none;stroke-opacity:1"
               d="m 1766.44,1931.45 c 69.53,0 136.23,27.62 185.4,76.8 49.17,49.16 76.8,115.86 76.8,185.4 0,69.54 -27.63,136.24 -76.8,185.4 -49.17,49.18 -115.87,76.8 -185.4,76.8 -69.54,0 -136.24,-27.62 -185.41,-76.8 -49.17,-49.16 -76.8,-115.86 -76.8,-185.4 0,-69.54 27.63,-136.24 76.8,-185.4 49.17,-49.18 115.87,-76.8 185.41,-76.8 z" />
            <path
               inkscape:connector-curvature="0"
               id="path6605"
               style="fill:#ffff00;fill-opacity:1;fill-rule:nonzero;stroke:none;stroke-width:26.13665771;stroke-miterlimit:4;stroke-dasharray:none"
               d="m 2728.3,2803.24 c 29.65,0 58.09,11.78 79.06,32.75 20.96,20.97 32.74,49.4 32.74,79.06 0,29.65 -11.78,58.09 -32.74,79.05 -20.97,20.97 -49.41,32.75 -79.06,32.75 -29.65,0 -58.09,-11.78 -79.06,-32.75 -20.97,-20.96 -32.74,-49.4 -32.74,-79.05 0,-29.66 11.77,-58.09 32.74,-79.06 20.97,-20.97 49.41,-32.75 79.06,-32.75" />
            <path
               inkscape:connector-curvature="0"
               id="path6607"
               style="fill:none;stroke:#000000;stroke-width:26.13665771;stroke-linecap:butt;stroke-linejoin:round;stroke-miterlimit:4;stroke-dasharray:none;stroke-opacity:1"
               d="m 2728.3,2803.24 c 29.65,0 58.09,11.78 79.06,32.75 20.96,20.97 32.74,49.4 32.74,79.06 0,29.65 -11.78,58.09 -32.74,79.05 -20.97,20.97 -49.41,32.75 -79.06,32.75 -29.65,0 -58.09,-11.78 -79.06,-32.75 -20.97,-20.96 -32.74,-49.4 -32.74,-79.05 0,-29.66 11.77,-58.09 32.74,-79.06 20.97,-20.97 49.41,-32.75 79.06,-32.75 z" />
            <path
               inkscape:connector-curvature="0"
               id="path6609"
               style="fill:#ff8c00;fill-opacity:1;fill-rule:nonzero;stroke:none;stroke-width:26.13665771;stroke-miterlimit:4;stroke-dasharray:none"
               d="m 3449.7,2081.85 c 29.64,0 58.09,11.78 79.05,32.74 20.96,20.97 32.75,49.41 32.75,79.06 0,29.65 -11.79,58.09 -32.75,79.06 -20.96,20.96 -49.41,32.74 -79.05,32.74 -29.66,0 -58.1,-11.78 -79.06,-32.74 -20.97,-20.97 -32.75,-49.41 -32.75,-79.06 0,-29.65 11.78,-58.09 32.75,-79.06 20.96,-20.96 49.4,-32.74 79.06,-32.74" />
            <path
               inkscape:connector-curvature="0"
               id="path6611"
               style="fill:none;stroke:#000000;stroke-width:26.13665771;stroke-linecap:butt;stroke-linejoin:round;stroke-miterlimit:4;stroke-dasharray:none;stroke-opacity:1"
               d="m 3449.7,2081.85 c 29.64,0 58.09,11.78 79.05,32.74 20.96,20.97 32.75,49.41 32.75,79.06 0,29.65 -11.79,58.09 -32.75,79.06 -20.96,20.96 -49.41,32.74 -79.05,32.74 -29.66,0 -58.1,-11.78 -79.06,-32.74 -20.97,-20.97 -32.75,-49.41 -32.75,-79.06 0,-29.65 11.78,-58.09 32.75,-79.06 20.96,-20.96 49.4,-32.74 79.06,-32.74 z" />
            <path
               inkscape:connector-curvature="0"
               id="path6613"
               style="fill:#ffff00;fill-opacity:1;fill-rule:nonzero;stroke:none;stroke-width:26.13665771;stroke-miterlimit:4;stroke-dasharray:none"
               d="m 2487.83,2562.78 c 29.65,0 58.09,11.78 79.06,32.74 20.97,20.97 32.75,49.41 32.75,79.06 0,29.65 -11.78,58.09 -32.75,79.06 -20.97,20.97 -49.41,32.74 -79.06,32.74 -29.65,0 -58.09,-11.77 -79.05,-32.74 -20.97,-20.97 -32.75,-49.41 -32.75,-79.06 0,-29.65 11.78,-58.09 32.75,-79.06 20.96,-20.96 49.4,-32.74 79.05,-32.74" />
            <path
               inkscape:connector-curvature="0"
               id="path6615"
               style="fill:none;stroke:#000000;stroke-width:26.13665771;stroke-linecap:butt;stroke-linejoin:round;stroke-miterlimit:4;stroke-dasharray:none;stroke-opacity:1"
               d="m 2487.83,2562.78 c 29.65,0 58.09,11.78 79.06,32.74 20.97,20.97 32.75,49.41 32.75,79.06 0,29.65 -11.78,58.09 -32.75,79.06 -20.97,20.97 -49.41,32.74 -79.06,32.74 -29.65,0 -58.09,-11.77 -79.05,-32.74 -20.97,-20.97 -32.75,-49.41 -32.75,-79.06 0,-29.65 11.78,-58.09 32.75,-79.06 20.96,-20.96 49.4,-32.74 79.05,-32.74 z" />
          </g>
        </g>
        <text
           xml:space="preserve"
           style="font-style:normal;font-variant:normal;font-weight:normal;font-stretch:normal;font-size:19.21416664px;line-height:1.25;font-family:'Latin Modern Math';-inkscape-font-specification:'Latin Modern Math';letter-spacing:0px;word-spacing:0px;fill:#000000;fill-opacity:1;stroke:none;stroke-width:0.45033199"
           x="474.13516"
           y="362.17072"
           id="text7962"><tspan
             sodipodi:role="line"
             id="tspan7960"
             x="474.13516"
             y="362.17072"
             style="stroke-width:0.45033199">3</tspan></text>
      </g>
      <g
         transform="translate(-106.58929)"
         id="g9089">
        <text
           xml:space="preserve"
           style="font-style:normal;font-variant:normal;font-weight:normal;font-stretch:normal;font-size:19.21416664px;line-height:1.25;font-family:'Latin Modern Math';-inkscape-font-specification:'Latin Modern Math';letter-spacing:0px;word-spacing:0px;fill:#000000;fill-opacity:1;stroke:none;stroke-width:0.45033199"
           x="708.86572"
           y="360.35107"
           id="text7972"><tspan
             sodipodi:role="line"
             id="tspan7970"
             x="708.86572"
             y="360.35107"
             style="stroke-width:0.45033199">4</tspan></text>
        <rect
           style="fill:none;fill-opacity:1;stroke:#808080;stroke-width:3.40408444;stroke-linejoin:round;stroke-miterlimit:4;stroke-dasharray:none;stroke-dashoffset:10;stroke-opacity:0.99215686"
           id="rect7637-0"
           width="180.36943"
           height="180.36943"
           x="696.88715"
           y="191.61127" />
        <g
           id="g7319"
           clip-path="url(#clipPath7323)"
           transform="matrix(0.05739066,0,0,-0.05739066,651.1937,380.09011)"
           style="stroke-width:26.13665771;stroke-miterlimit:4;stroke-dasharray:none">
          <path
             d="m 2968.76,969.586 c 69.54,0 136.24,27.629 185.41,76.794 49.17,49.17 76.79,115.87 76.79,185.41 0,69.54 -27.62,136.23 -76.79,185.41 -49.17,49.16 -115.87,76.79 -185.41,76.79 -69.53,0 -136.23,-27.63 -185.4,-76.79 -49.17,-49.18 -76.8,-115.87 -76.8,-185.41 0,-69.54 27.63,-136.24 76.8,-185.41 49.17,-49.165 115.87,-76.794 185.4,-76.794"
             style="fill:#9acd32;fill-opacity:1;fill-rule:nonzero;stroke:none;stroke-width:26.13665771;stroke-miterlimit:4;stroke-dasharray:none"
             id="path7325"
             inkscape:connector-curvature="0" />
          <path
             d="m 2968.76,969.586 c 69.54,0 136.24,27.629 185.41,76.794 49.17,49.17 76.79,115.87 76.79,185.41 0,69.54 -27.62,136.23 -76.79,185.41 -49.17,49.16 -115.87,76.79 -185.41,76.79 -69.53,0 -136.23,-27.63 -185.4,-76.79 -49.17,-49.18 -76.8,-115.87 -76.8,-185.41 0,-69.54 27.63,-136.24 76.8,-185.41 49.17,-49.165 115.87,-76.794 185.4,-76.794 z"
             style="fill:none;stroke:#000000;stroke-width:26.13665771;stroke-linecap:butt;stroke-linejoin:round;stroke-miterlimit:4;stroke-dasharray:none;stroke-opacity:1"
             id="path7327"
             inkscape:connector-curvature="0" />
          <path
             d="m 2247.37,729.121 c 69.54,0 136.23,27.629 185.4,76.797 49.17,49.172 76.8,115.871 76.8,185.406 0,69.536 -27.63,136.236 -76.8,185.406 -49.17,49.17 -115.86,76.8 -185.4,76.8 -69.54,0 -136.24,-27.63 -185.41,-76.8 -49.17,-49.17 -76.8,-115.87 -76.8,-185.406 0,-69.535 27.63,-136.234 76.8,-185.406 49.17,-49.168 115.87,-76.797 185.41,-76.797"
             style="fill:#9acd32;fill-opacity:1;fill-rule:nonzero;stroke:none;stroke-width:26.13665771;stroke-miterlimit:4;stroke-dasharray:none"
             id="path7329"
             inkscape:connector-curvature="0" />
          <path
             d="m 2247.37,729.121 c 69.54,0 136.23,27.629 185.4,76.797 49.17,49.172 76.8,115.871 76.8,185.406 0,69.536 -27.63,136.236 -76.8,185.406 -49.17,49.17 -115.86,76.8 -185.4,76.8 -69.54,0 -136.24,-27.63 -185.41,-76.8 -49.17,-49.17 -76.8,-115.87 -76.8,-185.406 0,-69.535 27.63,-136.234 76.8,-185.406 49.17,-49.168 115.87,-76.797 185.41,-76.797 z"
             style="fill:none;stroke:#000000;stroke-width:26.13665771;stroke-linecap:butt;stroke-linejoin:round;stroke-miterlimit:4;stroke-dasharray:none;stroke-opacity:1"
             id="path7331"
             inkscape:connector-curvature="0" />
          <path
             d="m 1766.44,1210.05 c 69.53,0 136.23,27.63 185.4,76.8 49.17,49.17 76.8,115.87 76.8,185.4 0,69.54 -27.63,136.24 -76.8,185.41 -49.17,49.17 -115.87,76.8 -185.4,76.8 -69.54,0 -136.24,-27.63 -185.41,-76.8 -49.17,-49.17 -76.8,-115.87 -76.8,-185.41 0,-69.53 27.63,-136.23 76.8,-185.4 49.17,-49.17 115.87,-76.8 185.41,-76.8"
             style="fill:#9acd32;fill-opacity:1;fill-rule:nonzero;stroke:none;stroke-width:26.13665771;stroke-miterlimit:4;stroke-dasharray:none"
             id="path7333"
             inkscape:connector-curvature="0" />
          <path
             d="m 1766.44,1210.05 c 69.53,0 136.23,27.63 185.4,76.8 49.17,49.17 76.8,115.87 76.8,185.4 0,69.54 -27.63,136.24 -76.8,185.41 -49.17,49.17 -115.87,76.8 -185.4,76.8 -69.54,0 -136.24,-27.63 -185.41,-76.8 -49.17,-49.17 -76.8,-115.87 -76.8,-185.41 0,-69.53 27.63,-136.23 76.8,-185.4 49.17,-49.17 115.87,-76.8 185.41,-76.8 z"
             style="fill:none;stroke:#000000;stroke-width:26.13665771;stroke-linecap:butt;stroke-linejoin:round;stroke-miterlimit:4;stroke-dasharray:none;stroke-opacity:1"
             id="path7335"
             inkscape:connector-curvature="0" />
          <path
             d="m 3449.7,879.52 c 29.64,0 58.09,11.781 79.05,32.746 20.96,20.968 32.75,49.41 32.75,79.058 0,29.656 -11.79,58.086 -32.75,79.056 -20.96,20.97 -49.41,32.75 -79.05,32.75 -29.66,0 -58.1,-11.78 -79.06,-32.75 -20.97,-20.97 -32.75,-49.4 -32.75,-79.056 0,-29.648 11.78,-58.09 32.75,-79.058 20.96,-20.965 49.4,-32.746 79.06,-32.746"
             style="fill:#ff8c00;fill-opacity:1;fill-rule:nonzero;stroke:none;stroke-width:26.13665771;stroke-miterlimit:4;stroke-dasharray:none"
             id="path7337"
             inkscape:connector-curvature="0" />
          <path
             d="m 3449.7,879.52 c 29.64,0 58.09,11.781 79.05,32.746 20.96,20.968 32.75,49.41 32.75,79.058 0,29.656 -11.79,58.086 -32.75,79.056 -20.96,20.97 -49.41,32.75 -79.05,32.75 -29.66,0 -58.1,-11.78 -79.06,-32.75 -20.97,-20.97 -32.75,-49.4 -32.75,-79.056 0,-29.648 11.78,-58.09 32.75,-79.058 20.96,-20.965 49.4,-32.746 79.06,-32.746 z"
             style="fill:none;stroke:#000000;stroke-width:26.13665771;stroke-linecap:butt;stroke-linejoin:round;stroke-miterlimit:4;stroke-dasharray:none;stroke-opacity:1"
             id="path7339"
             inkscape:connector-curvature="0" />
          <path
             d="m 2247.37,398.59 c 29.65,0 58.09,11.781 79.06,32.746 20.96,20.969 32.74,49.406 32.74,79.059 0,29.648 -11.78,58.089 -32.74,79.054 -20.97,20.969 -49.41,32.75 -79.06,32.75 -29.65,0 -58.09,-11.781 -79.06,-32.75 -20.97,-20.965 -32.75,-49.406 -32.75,-79.054 0,-29.653 11.78,-58.09 32.75,-79.059 20.97,-20.965 49.41,-32.746 79.06,-32.746"
             style="fill:#ff8c00;fill-opacity:1;fill-rule:nonzero;stroke:none;stroke-width:26.13665771;stroke-miterlimit:4;stroke-dasharray:none"
             id="path7341"
             inkscape:connector-curvature="0" />
          <path
             d="m 2247.37,398.59 c 29.65,0 58.09,11.781 79.06,32.746 20.96,20.969 32.74,49.406 32.74,79.059 0,29.648 -11.78,58.089 -32.74,79.054 -20.97,20.969 -49.41,32.75 -79.06,32.75 -29.65,0 -58.09,-11.781 -79.06,-32.75 -20.97,-20.965 -32.75,-49.406 -32.75,-79.054 0,-29.653 11.78,-58.09 32.75,-79.059 20.97,-20.965 49.41,-32.746 79.06,-32.746 z"
             style="fill:none;stroke:#000000;stroke-width:26.13665771;stroke-linecap:butt;stroke-linejoin:round;stroke-miterlimit:4;stroke-dasharray:none;stroke-opacity:1"
             id="path7343"
             inkscape:connector-curvature="0" />
          <path
             d="m 1285.51,1119.98 c 29.65,0 58.09,11.79 79.05,32.75 20.97,20.97 32.75,49.41 32.75,79.06 0,29.65 -11.78,58.09 -32.75,79.06 -20.96,20.96 -49.4,32.74 -79.05,32.74 -29.65,0 -58.1,-11.78 -79.06,-32.74 -20.97,-20.97 -32.75,-49.41 -32.75,-79.06 0,-29.65 11.78,-58.09 32.75,-79.06 20.96,-20.96 49.41,-32.75 79.06,-32.75"
             style="fill:#ff8c00;fill-opacity:1;fill-rule:nonzero;stroke:none;stroke-width:26.13665771;stroke-miterlimit:4;stroke-dasharray:none"
             id="path7345"
             inkscape:connector-curvature="0" />
          <path
             d="m 1285.51,1119.98 c 29.65,0 58.09,11.79 79.05,32.75 20.97,20.97 32.75,49.41 32.75,79.06 0,29.65 -11.78,58.09 -32.75,79.06 -20.96,20.96 -49.4,32.74 -79.05,32.74 -29.65,0 -58.1,-11.78 -79.06,-32.74 -20.97,-20.97 -32.75,-49.41 -32.75,-79.06 0,-29.65 11.78,-58.09 32.75,-79.06 20.96,-20.96 49.41,-32.75 79.06,-32.75 z"
             style="fill:none;stroke:#000000;stroke-width:26.13665771;stroke-linecap:butt;stroke-linejoin:round;stroke-miterlimit:4;stroke-dasharray:none;stroke-opacity:1"
             id="path7347"
             inkscape:connector-curvature="0" />
          <path
             d="m 2487.83,2171.91 c 69.54,0 136.24,27.63 185.41,76.8 49.17,49.17 76.8,115.87 76.8,185.41 0,69.53 -27.63,136.23 -76.8,185.4 -49.17,49.17 -115.87,76.8 -185.41,76.8 -69.53,0 -136.23,-27.63 -185.4,-76.8 -49.17,-49.17 -76.8,-115.87 -76.8,-185.4 0,-69.54 27.63,-136.24 76.8,-185.41 49.17,-49.17 115.87,-76.8 185.4,-76.8"
             style="fill:#32cd32;fill-opacity:1;fill-rule:nonzero;stroke:none;stroke-width:26.13665771;stroke-miterlimit:4;stroke-dasharray:none"
             id="path7349"
             inkscape:connector-curvature="0" />
          <path
             d="m 2487.83,2171.91 c 69.54,0 136.24,27.63 185.41,76.8 49.17,49.17 76.8,115.87 76.8,185.41 0,69.53 -27.63,136.23 -76.8,185.4 -49.17,49.17 -115.87,76.8 -185.41,76.8 -69.53,0 -136.23,-27.63 -185.4,-76.8 -49.17,-49.17 -76.8,-115.87 -76.8,-185.4 0,-69.54 27.63,-136.24 76.8,-185.41 49.17,-49.17 115.87,-76.8 185.4,-76.8 z"
             style="fill:none;stroke:#000000;stroke-width:26.13665771;stroke-linecap:butt;stroke-linejoin:round;stroke-miterlimit:4;stroke-dasharray:none;stroke-opacity:1"
             id="path7351"
             inkscape:connector-curvature="0" />
          <path
             d="m 2968.76,1690.98 c 69.54,0 136.24,27.63 185.41,76.8 49.17,49.17 76.79,115.87 76.79,185.4 0,69.54 -27.62,136.24 -76.79,185.41 -49.17,49.17 -115.87,76.8 -185.41,76.8 -69.53,0 -136.23,-27.63 -185.4,-76.8 -49.17,-49.17 -76.8,-115.87 -76.8,-185.41 0,-69.53 27.63,-136.23 76.8,-185.4 49.17,-49.17 115.87,-76.8 185.4,-76.8"
             style="fill:#32cd32;fill-opacity:1;fill-rule:nonzero;stroke:none;stroke-width:26.13665771;stroke-miterlimit:4;stroke-dasharray:none"
             id="path7353"
             inkscape:connector-curvature="0" />
          <path
             d="m 2968.76,1690.98 c 69.54,0 136.24,27.63 185.41,76.8 49.17,49.17 76.79,115.87 76.79,185.4 0,69.54 -27.62,136.24 -76.79,185.41 -49.17,49.17 -115.87,76.8 -185.41,76.8 -69.53,0 -136.23,-27.63 -185.4,-76.8 -49.17,-49.17 -76.8,-115.87 -76.8,-185.41 0,-69.53 27.63,-136.23 76.8,-185.4 49.17,-49.17 115.87,-76.8 185.4,-76.8 z"
             style="fill:none;stroke:#000000;stroke-width:26.13665771;stroke-linecap:butt;stroke-linejoin:round;stroke-miterlimit:4;stroke-dasharray:none;stroke-opacity:1"
             id="path7355"
             inkscape:connector-curvature="0" />
          <path
             d="m 1766.44,1931.45 c 69.53,0 136.23,27.62 185.4,76.8 49.17,49.16 76.8,115.86 76.8,185.4 0,69.54 -27.63,136.24 -76.8,185.4 -49.17,49.18 -115.87,76.8 -185.4,76.8 -69.54,0 -136.24,-27.62 -185.41,-76.8 -49.17,-49.16 -76.8,-115.86 -76.8,-185.4 0,-69.54 27.63,-136.24 76.8,-185.4 49.17,-49.18 115.87,-76.8 185.41,-76.8"
             style="fill:#ffff00;fill-opacity:1;fill-rule:nonzero;stroke:none;stroke-width:26.13665771;stroke-miterlimit:4;stroke-dasharray:none"
             id="path7357"
             inkscape:connector-curvature="0" />
          <path
             d="m 1766.44,1931.45 c 69.53,0 136.23,27.62 185.4,76.8 49.17,49.16 76.8,115.86 76.8,185.4 0,69.54 -27.63,136.24 -76.8,185.4 -49.17,49.18 -115.87,76.8 -185.4,76.8 -69.54,0 -136.24,-27.62 -185.41,-76.8 -49.17,-49.16 -76.8,-115.86 -76.8,-185.4 0,-69.54 27.63,-136.24 76.8,-185.4 49.17,-49.18 115.87,-76.8 185.41,-76.8 z"
             style="fill:none;stroke:#000000;stroke-width:26.13665771;stroke-linecap:butt;stroke-linejoin:round;stroke-miterlimit:4;stroke-dasharray:none;stroke-opacity:1"
             id="path7359"
             inkscape:connector-curvature="0" />
          <path
             d="m 2728.3,2803.24 c 29.65,0 58.09,11.78 79.06,32.75 20.96,20.97 32.74,49.4 32.74,79.06 0,29.65 -11.78,58.09 -32.74,79.05 -20.97,20.97 -49.41,32.75 -79.06,32.75 -29.65,0 -58.09,-11.78 -79.06,-32.75 -20.97,-20.96 -32.74,-49.4 -32.74,-79.05 0,-29.66 11.77,-58.09 32.74,-79.06 20.97,-20.97 49.41,-32.75 79.06,-32.75"
             style="fill:#ffff00;fill-opacity:1;fill-rule:nonzero;stroke:none;stroke-width:26.13665771;stroke-miterlimit:4;stroke-dasharray:none"
             id="path7361"
             inkscape:connector-curvature="0" />
          <path
             d="m 2728.3,2803.24 c 29.65,0 58.09,11.78 79.06,32.75 20.96,20.97 32.74,49.4 32.74,79.06 0,29.65 -11.78,58.09 -32.74,79.05 -20.97,20.97 -49.41,32.75 -79.06,32.75 -29.65,0 -58.09,-11.78 -79.06,-32.75 -20.97,-20.96 -32.74,-49.4 -32.74,-79.05 0,-29.66 11.77,-58.09 32.74,-79.06 20.97,-20.97 49.41,-32.75 79.06,-32.75 z"
             style="fill:none;stroke:#000000;stroke-width:26.13665771;stroke-linecap:butt;stroke-linejoin:round;stroke-miterlimit:4;stroke-dasharray:none;stroke-opacity:1"
             id="path7363"
             inkscape:connector-curvature="0" />
          <path
             d="m 3449.7,2081.85 c 29.64,0 58.09,11.78 79.05,32.74 20.96,20.97 32.75,49.41 32.75,79.06 0,29.65 -11.79,58.09 -32.75,79.06 -20.96,20.96 -49.41,32.74 -79.05,32.74 -29.66,0 -58.1,-11.78 -79.06,-32.74 -20.97,-20.97 -32.75,-49.41 -32.75,-79.06 0,-29.65 11.78,-58.09 32.75,-79.06 20.96,-20.96 49.4,-32.74 79.06,-32.74"
             style="fill:#ffff00;fill-opacity:1;fill-rule:nonzero;stroke:none;stroke-width:26.13665771;stroke-miterlimit:4;stroke-dasharray:none"
             id="path7365"
             inkscape:connector-curvature="0" />
          <path
             d="m 3449.7,2081.85 c 29.64,0 58.09,11.78 79.05,32.74 20.96,20.97 32.75,49.41 32.75,79.06 0,29.65 -11.79,58.09 -32.75,79.06 -20.96,20.96 -49.41,32.74 -79.05,32.74 -29.66,0 -58.1,-11.78 -79.06,-32.74 -20.97,-20.97 -32.75,-49.41 -32.75,-79.06 0,-29.65 11.78,-58.09 32.75,-79.06 20.96,-20.96 49.4,-32.74 79.06,-32.74 z"
             style="fill:none;stroke:#000000;stroke-width:26.13665771;stroke-linecap:butt;stroke-linejoin:round;stroke-miterlimit:4;stroke-dasharray:none;stroke-opacity:1"
             id="path7367"
             inkscape:connector-curvature="0" />
          <path
             d="m 2968.76,2562.78 c 29.65,0 58.1,11.78 79.06,32.74 20.97,20.97 32.75,49.41 32.75,79.06 0,29.65 -11.78,58.09 -32.75,79.06 -20.96,20.97 -49.41,32.74 -79.06,32.74 -29.65,0 -58.09,-11.77 -79.05,-32.74 -20.97,-20.97 -32.75,-49.41 -32.75,-79.06 0,-29.65 11.78,-58.09 32.75,-79.06 20.96,-20.96 49.4,-32.74 79.05,-32.74"
             style="fill:#32cd32;fill-opacity:1;fill-rule:nonzero;stroke:none;stroke-width:26.13665771;stroke-miterlimit:4;stroke-dasharray:none"
             id="path7369"
             inkscape:connector-curvature="0" />
          <path
             d="m 2968.76,2562.78 c 29.65,0 58.1,11.78 79.06,32.74 20.97,20.97 32.75,49.41 32.75,79.06 0,29.65 -11.78,58.09 -32.75,79.06 -20.96,20.97 -49.41,32.74 -79.06,32.74 -29.65,0 -58.09,-11.77 -79.05,-32.74 -20.97,-20.97 -32.75,-49.41 -32.75,-79.06 0,-29.65 11.78,-58.09 32.75,-79.06 20.96,-20.96 49.4,-32.74 79.05,-32.74 z"
             style="fill:none;stroke:#000000;stroke-width:26.13665771;stroke-linecap:butt;stroke-linejoin:round;stroke-miterlimit:4;stroke-dasharray:none;stroke-opacity:1"
             id="path7371"
             inkscape:connector-curvature="0" />
        </g>
      </g>
    </g>
  </g>
</svg>
